<svg width="32" height="32" viewBox="0 0 32 32" fill="none" xmlns="http://www.w3.org/2000/svg">
<path d="M28.1935 11.9123C28.1935 17.4123 23.9023 22.8478 17.2323 27.4848C16.8618 27.7424 16.4076 28 16.0968 28C15.786 28 15.3318 27.7424 14.9612 27.4848C8.27929 22.8478 3.99999 17.4123 3.99999 11.9123C3.99999 7.15945 7.04809 3.86206 10.9568 3.86206C13.2399 3.86206 15.021 4.98266 16.0968 6.68288C17.1487 4.99554 18.9417 3.86206 21.2247 3.86206C25.1454 3.86206 28.1935 7.15945 28.1935 11.9123ZM25.7312 11.8995C25.7312 8.65358 23.7469 6.45103 21.0813 6.45103C18.9297 6.45103 17.7224 7.85499 16.9694 9.07864C16.6347 9.60673 16.4076 9.77418 16.0968 9.77418C15.774 9.77418 15.5708 9.59385 15.2242 9.07864C14.4113 7.88076 13.2519 6.45103 11.1122 6.45103C8.43468 6.45103 6.45043 8.65358 6.45043 11.8995C6.45043 16.4334 10.8253 21.4567 15.8697 25.0633C15.9772 25.1405 16.049 25.1921 16.0968 25.1921C16.1446 25.1921 16.2163 25.1405 16.3119 25.0633C21.3562 21.4567 25.7312 16.4334 25.7312 11.8995Z" fill="#DC143C"/>
<path d="M5.31045 11.1896C12.8709 -2.17265 16.5 9.89625 16.5 9.89625L16.0968 25.4134L11.4398 23.7192C11.4398 23.7192 2.63715 15.9143 5.31045 11.1896Z" fill="#DC143C"/>
<path d="M27.2863 11.0176C19.7258 -2.34469 16.0968 9.72422 16.0968 9.72422V25.4135L21.1569 23.5471C21.1569 23.5471 29.9596 15.7423 27.2863 11.0176Z" fill="#DC143C"/>
<ellipse cx="26.5807" cy="5.58621" rx="2.41935" ry="2.58621" fill="#DC143C"/>
</svg>
