<svg width="28" height="28" viewBox="0 0 28 28" fill="none" xmlns="http://www.w3.org/2000/svg">
<path d="M26.4479 10.0361L18.2811 1.75297C17.7265 1.19472 17.0649 0.754072 16.336 0.457373C14.8381 -0.152458 13.1611 -0.152458 11.6632 0.457373C10.9344 0.754214 10.2728 1.19485 9.71806 1.75297L1.55185 10.0361C0.566847 11.0182 0.00917111 12.3492 0 13.7402V22.4831C0 23.9323 0.614571 25.3216 1.70846 26.3467C2.80235 27.3718 4.28598 27.9484 5.83309 27.9484H5.89834C6.43283 27.9484 6.95082 27.7635 7.36436 27.4249C7.77789 27.0863 8.06138 26.615 8.1668 26.091C8.41672 24.7857 9.13926 23.6185 10.1962 22.8129C11.2914 21.9788 12.6354 21.5372 14.0119 21.5594C15.3884 21.5815 16.7174 22.0661 17.7852 22.9351C18.8122 23.774 19.4924 24.9632 19.6948 26.2737C19.7626 26.7525 20.001 27.1908 20.3661 27.5079C20.7312 27.8251 21.1984 27.9998 21.682 28H22.1661C22.9294 28.0008 23.6863 27.86 24.3984 27.5847C25.0993 27.3138 25.7419 26.911 26.2913 26.3983C26.8275 25.8984 27.2575 25.2956 27.5555 24.6258C27.8474 23.9679 27.9988 23.2563 27.9998 22.5364V13.7947C28.0128 12.4025 27.4576 11.0582 26.4479 10.0361Z" fill="#656E7B"/>
</svg>
