<svg width="19" height="19" viewBox="0 0 19 19" fill="none" xmlns="http://www.w3.org/2000/svg">
<path fill-rule="evenodd" clip-rule="evenodd" d="M0.791687 9.49996C0.791687 4.69048 4.69054 0.791626 9.50002 0.791626C14.3095 0.791626 18.2084 4.69048 18.2084 9.49996C18.2084 9.70992 18.1249 9.91129 17.9765 10.0598L10.0598 17.9764C9.75065 18.2856 9.24939 18.2856 8.94023 17.9764L1.02356 10.0598C0.875094 9.91129 0.791687 9.70992 0.791687 9.49996ZM2.58482 7.77672C2.61001 7.76184 2.63505 7.74729 2.65996 7.73305C3.12347 7.46819 3.61774 7.2689 4.10229 7.2689C4.58684 7.2689 5.08112 7.46819 5.54463 7.73305C5.87044 7.91923 6.22048 8.161 6.59339 8.45285C7.4933 7.70305 8.46385 7.2689 9.50002 7.2689C10.5362 7.2689 11.5067 7.70305 12.4067 8.45285C12.7796 8.161 13.1296 7.91923 13.4554 7.73305C13.9189 7.46819 14.4132 7.2689 14.8977 7.2689C15.3823 7.2689 15.8766 7.46819 16.3401 7.73305C16.365 7.74729 16.39 7.76185 16.4152 7.77673C15.6446 4.67427 12.8408 2.37496 9.50002 2.37496C6.1592 2.37496 3.35541 4.67427 2.58482 7.77672ZM16.2343 9.56277C15.9804 9.37244 15.754 9.22177 15.5545 9.10777C15.1784 8.89284 14.973 8.85223 14.8977 8.85223C14.8225 8.85223 14.6171 8.89284 14.241 9.10777C13.9164 9.29325 13.5208 9.57578 13.0509 9.96826L11.4635 14.3335L16.2343 9.56277ZM9.50002 15.1001L11.4557 9.72191C10.7304 9.09884 10.0803 8.85223 9.50002 8.85223C8.9197 8.85223 8.26964 9.09884 7.54432 9.72191L9.50002 15.1001ZM5.94914 9.96826C5.47928 9.57578 5.08365 9.29325 4.75907 9.10777C4.38294 8.89284 4.17751 8.85223 4.10229 8.85223C4.02708 8.85223 3.82165 8.89284 3.44551 9.10777C3.24601 9.22177 3.01967 9.37244 2.76575 9.56277L7.53651 14.3335L5.94914 9.96826Z" fill="#E94057"/>
</svg>
