<svg width="32" height="32" viewBox="0 0 32 32" fill="none" xmlns="http://www.w3.org/2000/svg">
<path d="M16.5 3C10.1635 3 5 7.5 5 13.04C5 18.29 14.591 26.76 15.6835 27.71C15.9135 27.9 16.201 28 16.5 28C16.799 28 17.0865 27.9 17.3165 27.71C18.409 26.76 28 18.29 28 13.04C28 7.5 22.8365 3 16.5 3Z" fill="#DC143C"/>
<path d="M21.1001 13.04C21.1001 15.24 19.0416 17.04 16.5001 17.04C13.9586 17.04 11.9001 15.24 11.9001 13.04C11.9001 10.83 13.9586 9.04004 16.5001 9.04004C19.0416 9.04004 21.1001 10.83 21.1001 13.04Z" fill="white"/>
</svg>
