<svg width="19" height="19" viewBox="0 0 19 19" fill="none" xmlns="http://www.w3.org/2000/svg">
<path fill-rule="evenodd" clip-rule="evenodd" d="M0.791687 9.49996C0.791687 4.69048 4.69054 0.791626 9.50002 0.791626C14.3095 0.791626 18.2084 4.69048 18.2084 9.49996C18.2084 10.3667 17.7095 10.9301 17.1217 11.2707C16.5788 11.5853 15.8886 11.7578 15.2774 11.8902C15.0825 11.9324 14.8938 11.9709 14.7108 12.0082C14.2727 12.0976 13.8667 12.1805 13.4841 12.2918C12.9353 12.4514 12.6207 12.6229 12.4676 12.7958L11.875 12.2708L12.4676 12.7958C12.2413 13.0512 12.0962 13.4158 12.0015 13.9134C11.934 14.2684 11.9025 14.6175 11.8683 14.996C11.8525 15.1709 11.8361 15.3522 11.8154 15.5432C11.7571 16.0789 11.6603 16.7362 11.3352 17.2602C11.1607 17.5414 10.9179 17.7909 10.5871 17.9641C10.2607 18.1349 9.89305 18.2083 9.50002 18.2083C4.69054 18.2083 0.791687 14.3094 0.791687 9.49996ZM9.50002 2.37496C5.56499 2.37496 2.37502 5.56493 2.37502 9.49996C2.37502 13.435 5.56499 16.625 9.50002 16.625C9.6968 16.625 9.80041 16.5887 9.85279 16.5613C9.90074 16.5362 9.94424 16.4988 9.98972 16.4255C10.1045 16.2404 10.182 15.9182 10.2413 15.3721C10.2556 15.2409 10.2688 15.0946 10.283 14.9389C10.3203 14.5281 10.3634 14.0522 10.4461 13.6176C10.5641 12.9969 10.7836 12.309 11.2824 11.7458C11.7481 11.2202 12.4356 10.9478 13.0419 10.7714C13.4909 10.6408 13.9969 10.5376 14.4593 10.4432C14.6277 10.4088 14.7904 10.3756 14.9424 10.3427C15.562 10.2085 16.0252 10.0761 16.328 9.90071C16.5858 9.7513 16.625 9.63972 16.625 9.49996C16.625 5.56493 13.4351 2.37496 9.50002 2.37496ZM9.10419 5.54163C9.10419 4.44854 9.99027 3.56246 11.0834 3.56246C12.1764 3.56246 13.0625 4.44854 13.0625 5.54163C13.0625 6.63471 12.1764 7.52079 11.0834 7.52079C9.99027 7.52079 9.10419 6.63471 9.10419 5.54163ZM11.0834 5.14579C10.8647 5.14579 10.6875 5.323 10.6875 5.54163C10.6875 5.76026 10.8647 5.93746 11.0834 5.93746C11.302 5.93746 11.4792 5.76026 11.4792 5.54163C11.4792 5.323 11.302 5.14579 11.0834 5.14579ZM4.35419 7.12496C4.35419 6.03188 5.24027 5.14579 6.33335 5.14579C7.42644 5.14579 8.31252 6.03188 8.31252 7.12496C8.31252 8.21804 7.42644 9.10413 6.33335 9.10413C5.24027 9.10413 4.35419 8.21804 4.35419 7.12496ZM6.33335 6.72913C6.11472 6.72913 5.93752 6.90633 5.93752 7.12496C5.93752 7.34359 6.11472 7.52079 6.33335 7.52079C6.55199 7.52079 6.72919 7.34359 6.72919 7.12496C6.72919 6.90633 6.55199 6.72913 6.33335 6.72913ZM4.75002 12.2708C4.75002 11.1777 5.63611 10.2916 6.72919 10.2916C7.82227 10.2916 8.70835 11.1777 8.70835 12.2708C8.70835 13.3639 7.82227 14.25 6.72919 14.25C5.63611 14.25 4.75002 13.3639 4.75002 12.2708ZM6.72919 11.875C6.51056 11.875 6.33335 12.0522 6.33335 12.2708C6.33335 12.4894 6.51056 12.6666 6.72919 12.6666C6.94782 12.6666 7.12502 12.4894 7.12502 12.2708C7.12502 12.0522 6.94782 11.875 6.72919 11.875Z" fill="#E94057"/>
</svg>
