<svg width="167" height="167" viewBox="0 0 167 167" fill="none" xmlns="http://www.w3.org/2000/svg">
<rect x="82" y="40" width="68" height="90" fill="white"/>
<path d="M83.4596 167C129.225 167 167 129.207 167 83.5C167 37.793 129.145 0 83.3789 0C37.694 0 0 37.793 0 83.5C0 129.207 37.7748 167 83.4596 167ZM83.4596 111.441C60.6979 111.441 43.0213 119.597 34.4654 128.965C23.4882 117.094 16.7888 101.104 16.7888 83.5C16.7888 46.4338 46.4113 16.7162 83.3789 16.7162C120.427 16.7162 150.211 46.4338 150.292 83.5C150.292 101.104 143.593 117.094 132.535 129.045C123.979 119.597 106.302 111.441 83.4596 111.441ZM83.4596 98.1973C99.1184 98.3588 111.306 84.9536 111.306 67.6721C111.306 51.3598 99.0377 37.7123 83.4596 37.7123C67.9623 37.7123 55.6129 51.3598 55.6936 67.6721C55.7743 84.9536 67.8816 98.1165 83.4596 98.1973Z" fill="#E94057"/>
</svg>
