<svg width="34" height="28" viewBox="0 0 34 28" fill="none" xmlns="http://www.w3.org/2000/svg">
<path d="M33.9632 25.3401C33.91 25.0489 33.8007 24.7712 33.6416 24.5229C33.4825 24.2746 33.2766 24.0605 33.0359 23.8929L23.3914 17.259C24.0842 15.6944 24.4436 13.9993 24.4463 12.2842C24.4454 9.851 23.7272 7.47358 22.3838 5.45741C21.0345 3.43289 19.1242 1.85895 16.8939 0.934019C14.6619 0.00545805 12.2099 -0.237488 9.84284 0.235389C7.47571 0.708259 5.29784 1.87609 3.57988 3.59375C2.30273 4.87349 1.3238 6.42651 0.714645 8.1393C0.105481 9.85202 -0.118507 11.6811 0.059077 13.493C0.23666 15.3047 0.811312 17.0534 1.74101 18.611C2.67072 20.1687 3.93198 21.4959 5.43256 22.4957C7.44604 23.8446 9.80622 24.5633 12.2194 24.5625C15.4316 24.5606 18.5156 23.2841 20.8117 21.0061L30.5061 27.6066L30.5115 27.61C30.9977 27.9434 31.5935 28.0701 32.1708 27.9628C32.7482 27.8554 33.261 27.5228 33.599 27.0362C33.7677 26.7922 33.8868 26.5165 33.9493 26.2253C34.0118 25.9341 34.0166 25.6331 33.9632 25.3401ZM15.4162 20.0008C13.8915 20.6353 12.2166 20.8015 10.5994 20.479C8.98233 20.1564 7.49426 19.3592 6.32013 18.1864C5.4507 17.3161 4.78425 16.2596 4.3696 15.0943C3.95496 13.929 3.80259 12.6844 3.92371 11.4517C4.04482 10.2189 4.43634 9.02934 5.06955 7.9699C5.70278 6.91045 6.56165 6.0081 7.58335 5.32884C8.95859 4.40699 10.5709 3.91587 12.2194 3.91656C14.4267 3.91909 16.5445 4.80195 18.1153 6.37454C18.8865 7.14606 19.4995 8.06469 19.9188 9.07756C20.3382 10.0904 20.5557 11.1775 20.5588 12.276C20.5581 13.9309 20.0696 15.5478 19.156 16.9191C18.2361 18.2981 16.9345 19.3704 15.4149 20.0008H15.4162Z" fill="#DC143C"/>
</svg>
