<svg width="35" height="35" viewBox="0 0 35 35" fill="none" xmlns="http://www.w3.org/2000/svg">
<path d="M34.965 0.886667C34.9417 0.793334 34.9067 0.7 34.86 0.618334C34.8484 0.583334 34.825 0.548334 34.8017 0.513334C34.79 0.501667 34.7784 0.478334 34.755 0.466667C34.7317 0.42 34.6967 0.373334 34.6617 0.338334C34.6267 0.303334 34.58 0.268334 34.5334 0.245C34.5218 0.221667 34.4984 0.21 34.4867 0.198333C34.4517 0.175 34.4167 0.151667 34.3817 0.14C34.3 0.0933334 34.2067 0.0583333 34.1134 0.035C34.02 0.0116666 33.9267 0 33.8334 0C33.74 0 33.6467 0.0116666 33.5417 0.0466667C33.495 0.0466667 33.4367 0.0700001 33.3784 0.0933335L33.18 0.186667L0.711667 14.0933C0.28 14.28 0 14.6883 0 15.155C0 15.61 0.268334 16.0417 0.688334 16.2283L13.125 21.875L18.7717 34.3117C18.9583 34.7317 19.3783 35 19.8334 35H19.845C20.3117 35 20.72 34.72 20.9067 34.2884L34.8717 1.70333C34.8834 1.68 34.895 1.645 34.9067 1.62178C34.93 1.56345 34.9534 1.50512 34.9534 1.45845C34.9884 1.365 35 1.27167 35 1.16667C35 1.07333 34.9884 0.980001 34.965 0.886667Z" fill="#E94057"/>
</svg>
