<svg width="19" height="19" viewBox="0 0 19 19" fill="none" xmlns="http://www.w3.org/2000/svg">
<path fill-rule="evenodd" clip-rule="evenodd" d="M9.50002 0.791626C4.69054 0.791626 0.791687 4.69048 0.791687 9.49996C0.791687 14.3094 4.69054 18.2083 9.50002 18.2083C14.3095 18.2083 18.2084 14.3094 18.2084 9.49996C18.2084 4.69048 14.3095 0.791626 9.50002 0.791626ZM12.0368 12.1279C13.1158 11.1145 14.6289 10.3286 16.5835 10.2735C16.2266 13.5791 13.6088 16.2071 10.3079 16.5797C10.413 14.5229 11.0248 13.0783 12.0368 12.1279ZM8.7228 16.5831C8.8299 14.2145 9.53647 12.304 10.9529 10.9738C12.2954 9.71293 14.1854 8.7464 16.5795 8.68967C16.2054 5.3851 13.5708 2.76569 10.2592 2.41493C10.1049 4.78558 9.427 6.70465 8.12933 8.06828C6.8099 9.45469 4.85995 10.1487 2.41658 10.274C2.77478 13.5896 5.4076 16.2234 8.7228 16.5831ZM8.67169 2.42259C8.51995 4.49972 7.92633 5.98482 6.98235 6.97678C6.05199 7.95436 4.57553 8.56469 2.42075 8.68828C2.7928 5.40739 5.3931 2.80218 8.67169 2.42259Z" fill="#E94057"/>
</svg>
