<svg width="43" height="45" viewBox="0 0 43 45" fill="none" xmlns="http://www.w3.org/2000/svg">
<path d="M7.98814 37.0179C13.6927 42.8275 20.8438 44.6118 24.2258 44.9645C25.5704 45.172 26.4261 44.4458 26.4873 43.3877C26.5687 42.4125 25.9779 41.6241 24.7759 41.3751C21.6995 40.8564 15.3633 39.3417 10.5552 34.4036C2.75216 26.4778 1.20378 14.174 7.64179 7.59675C12.7963 2.36816 21.3531 2.88687 27.6689 6.35185L30.3378 3.67531C22.2292 -1.34579 11.472 -1.51178 5.09511 4.98246C-2.52457 12.7631 -1.62814 27.2247 7.98814 37.0179ZM38.9558 6.91205L40.6876 5.12769C41.584 4.19402 41.6655 2.84537 40.7691 1.97394L40.1579 1.37224C39.3633 0.6253 38.0798 0.687545 37.2037 1.55898L35.4516 3.34333L38.9558 6.91205ZM19.0509 27.1625L37.4482 8.44743L33.9236 4.87871L15.5467 23.5937L13.7742 27.9509C13.5501 28.5318 14.1206 29.092 14.6706 28.8846L19.0509 27.1625ZM15.7301 30.6897C22.2292 37.5781 33.4142 40.1509 39.5263 33.9472C44.4974 28.8638 44.0696 19.8383 38.6502 12.0369L36.0424 14.6927C40.0356 20.689 40.7691 27.4529 36.9592 31.3329C32.2733 36.105 24.6333 33.9472 19.6418 29.092L15.7301 30.6897Z" fill="#E94057"/>
</svg>
