<svg width="13" height="17" viewBox="0 0 13 17" fill="none" xmlns="http://www.w3.org/2000/svg">
<path d="M6.5 0C2.9185 0 0 2.925 0 6.526C0 9.9385 5.421 15.444 6.0385 16.0615C6.1685 16.185 6.331 16.25 6.5 16.25C6.669 16.25 6.8315 16.185 6.9615 16.0615C7.579 15.444 13 9.9385 13 6.526C13 2.925 10.0815 0 6.5 0Z" fill="#E94057"/>
<path d="M9.10002 6.52578C9.10002 7.95578 7.93652 9.12578 6.50002 9.12578C5.06352 9.12578 3.90002 7.95578 3.90002 6.52578C3.90002 5.08928 5.06352 3.92578 6.50002 3.92578C7.93652 3.92578 9.10002 5.08928 9.10002 6.52578Z" fill="#FFD8E0"/>
</svg>
