<svg width="29" height="41" viewBox="0 0 29 41" fill="none" xmlns="http://www.w3.org/2000/svg">
<path d="M14.2446 26.5129C18.0295 26.5129 20.8263 23.6789 20.8263 19.5398V6.97316C20.8263 2.83401 18.0295 0 14.2446 0C10.4597 0 7.66302 2.83401 7.66302 6.97316V19.5398C7.66302 23.6789 10.4597 26.5129 14.2446 26.5129ZM0 19.9686C0 27.6876 5.12733 32.964 12.5107 33.6725V37.4574H5.66803C4.67985 37.4574 3.85948 38.2405 3.85948 39.2287C3.85948 40.1982 4.67985 41 5.66803 41H22.8213C23.8094 41 24.6298 40.1982 24.6298 39.2287C24.6298 38.2405 23.8094 37.4574 22.8213 37.4574H15.9786V33.6725C23.362 32.964 28.4893 27.6876 28.4893 19.9686V16.2956C28.4893 15.3074 27.7062 14.543 26.718 14.543C25.7299 14.543 24.9095 15.3074 24.9095 16.2956V19.8381C24.9095 26.196 20.6025 30.3724 14.2446 30.3724C7.88676 30.3724 3.57981 26.196 3.57981 19.8381V16.2956C3.57981 15.3074 2.77808 14.543 1.7899 14.543C0.801727 14.543 0 15.3074 0 16.2956V19.9686Z" fill="#DC143C"/>
</svg>
