<svg width="32" height="32" viewBox="0 0 32 32" fill="none" xmlns="http://www.w3.org/2000/svg">
<path d="M27.6142 11.9608L20.3224 4.56515C19.8272 4.06671 19.2365 3.67328 18.5857 3.40837C17.2483 2.86388 15.751 2.86388 14.4136 3.40837C13.7628 3.67341 13.1722 4.06683 12.6768 4.56515L5.38558 11.9608C4.50611 12.8377 4.00819 14.0261 4 15.268V23.0742C4 24.3681 4.54872 25.6086 5.52541 26.5238C6.5021 27.4391 7.82677 27.9539 9.20811 27.9539H9.26638C9.7436 27.954 10.2061 27.7888 10.5753 27.4865C10.9445 27.1842 11.1977 26.7634 11.2918 26.2955C11.5149 25.1301 12.16 24.088 13.1037 23.3686C14.0816 22.6239 15.2816 22.2297 16.5106 22.2495C17.7396 22.2692 18.9263 22.7019 19.8796 23.4778C20.7966 24.2267 21.4039 25.2886 21.5846 26.4587C21.6452 26.8862 21.858 27.2775 22.184 27.5606C22.51 27.8438 22.9272 27.9998 23.359 28H23.7912C24.4727 28.0007 25.1485 27.875 25.7843 27.6292C26.4101 27.3873 26.9838 27.0277 27.4744 26.5699C27.9531 26.1236 28.337 25.5853 28.6031 24.9873C28.8638 24.3999 28.9989 23.7645 28.9998 23.1218V15.3167C29.0114 14.0736 28.5157 12.8734 27.6142 11.9608Z" fill="#DC143C"/>
</svg>
