<svg width="22" height="22" viewBox="0 0 22 22" fill="none" xmlns="http://www.w3.org/2000/svg">
<mask id="mask0_859_2918" style="mask-type:luminance" maskUnits="userSpaceOnUse" x="0" y="3" width="22" height="16">
<rect y="3.14258" width="22" height="15.7143" rx="4" fill="white"/>
</mask>
<g mask="url(#mask0_859_2918)">
<rect y="3.14258" width="22" height="15.7143" fill="#EE343C"/>
<path fill-rule="evenodd" clip-rule="evenodd" d="M9.85905 6.71608C9.60872 6.46575 9.21649 6.42691 8.92193 6.62328C8.44746 6.9396 8.49171 7.65048 9.00176 7.9055L9.59442 8.20184C9.81378 8.31151 9.95233 8.5357 9.95233 8.78095C9.95233 9.13853 9.66245 9.42841 9.30487 9.42841H9.10479C8.97322 9.42841 8.84345 9.39778 8.72576 9.33893L7.26253 8.60732C6.99197 8.47204 6.6652 8.52506 6.45131 8.73896C6.11213 9.07814 6.20492 9.64994 6.63395 9.86446L7.15355 10.1243C7.46704 10.281 7.49424 10.7179 7.20261 10.9124C6.86424 11.1379 6.96752 11.66 7.3663 11.7398L7.80782 11.8281C8.23175 11.9129 8.35568 12.4592 8.00982 12.7186L7.61454 13.0151C7.35665 13.2085 7.49344 13.6189 7.8158 13.6189C7.84323 13.6189 7.87055 13.6155 7.89716 13.6089L8.88856 13.361C9.26446 13.267 9.55903 13.685 9.3441 14.0074C9.15628 14.2892 9.35824 14.6665 9.69682 14.6665H10.1553C10.3469 14.6665 10.517 14.7891 10.5776 14.9709C10.7129 15.3768 11.287 15.3768 11.4223 14.9709C11.4829 14.7891 11.653 14.6665 11.8446 14.6665H12.3031C12.6417 14.6665 12.8436 14.2892 12.6558 14.0074C12.4409 13.685 12.7354 13.267 13.1114 13.361L14.1027 13.6089C14.1294 13.6155 14.1567 13.6189 14.1841 13.6189C14.5065 13.6189 14.6433 13.2085 14.3854 13.0151L13.9901 12.7186C13.6442 12.4592 13.7682 11.9129 14.1921 11.8281L14.6336 11.7398C15.0324 11.66 15.1357 11.1379 14.7973 10.9124C14.5057 10.7179 14.5329 10.281 14.8464 10.1243L15.366 9.86446C15.795 9.64994 15.8878 9.07814 15.5486 8.73896C15.3347 8.52506 15.0079 8.47204 14.7374 8.60732L13.2741 9.33893C13.1565 9.39778 13.0267 9.42841 12.8951 9.42841H12.695C12.3375 9.42841 12.0476 9.13853 12.0476 8.78095C12.0476 8.5357 12.186 8.31159 12.4053 8.20191C12.5921 8.10851 12.7969 8.00614 12.9982 7.90549C13.5082 7.65047 13.5525 6.9396 13.078 6.62328C12.7834 6.42691 12.3912 6.46575 12.1409 6.71608L11.8635 6.99347C11.3866 7.47037 10.6133 7.47037 10.1364 6.99347L9.85905 6.71608Z" fill="#262626"/>
</g>
</svg>
