
<svg width="27" height="19" viewBox="0 0 27 19" fill="none" xmlns="http://www.w3.org/2000/svg">
<path d="M3.69565 19H15.1304C17.4783 19 18.8261 17.605 18.8261 15.1608V3.8392C18.8261 1.39502 17.5652 0 15.2174 0H3.69565C1.43478 0 0 1.39502 0 3.8392V15.2415C0 17.6742 1.3587 19 3.69565 19ZM20.4239 13.2124L24.1413 16.6019C24.587 17.017 25.0652 17.2822 25.5217 17.2822C26.4022 17.2822 27 16.6135 27 15.5989V3.45874C27 2.44417 26.4022 1.77549 25.5217 1.77549C25.0543 1.77549 24.587 2.04066 24.1413 2.4557L20.4239 5.84527V13.2124Z" fill="#E94057"/>
</svg>
