<svg width="47" height="32" viewBox="0 0 47 32" fill="none" xmlns="http://www.w3.org/2000/svg">
<path d="M6.43318 31.182H26.3382C30.4251 31.182 32.7714 28.8925 32.7714 24.8813V6.30073C32.7714 2.28945 30.5765 0 26.4895 0H6.43318C2.49759 0 0 2.28945 0 6.30073V25.0137C0 29.0061 2.36514 31.182 6.43318 31.182ZM35.5528 21.6836L42.0238 27.2464C42.7995 27.9275 43.6321 28.3627 44.4268 28.3627C45.9594 28.3627 47 27.2653 47 25.6003V5.67633C47 4.01127 45.9594 2.91385 44.4268 2.91385C43.6131 2.91385 42.7995 3.34904 42.0238 4.03019L35.5528 9.593V21.6836Z" fill="#DC143C"/>
</svg>
