<svg width="24" height="24" viewBox="0 0 24 24" fill="none" xmlns="http://www.w3.org/2000/svg">
<path d="M5.80366 19.6555L5.79446 19.6541L5.78522 19.6531C4.2209 19.4792 3.39262 18.9454 2.91871 18.1644C2.41731 17.3381 2.25 16.1419 2.25 14.5V9.5C2.25 7.85883 2.41967 6.6604 2.92552 5.83177C3.40419 5.04765 4.24029 4.51089 5.81489 4.33698L5.81491 4.33714L5.82756 4.33542C6.23612 4.2797 6.76113 4.25 7.5 4.25H10.96C11.0939 4.25 11.21 4.36614 11.21 4.5C11.21 4.63386 11.0939 4.75 10.96 4.75H7.5C6.80836 4.75 6.30732 4.78036 5.8913 4.83343C4.85715 4.94594 3.98334 5.17851 3.42925 5.96935C2.90813 6.71315 2.75 7.8504 2.75 9.5V14.5C2.75 16.15 2.9083 17.2836 3.42458 18.0256C3.97338 18.8143 4.83783 19.0483 5.85612 19.1659C6.3103 19.2303 6.81713 19.25 7.5 19.25H11.02C11.1539 19.25 11.27 19.3661 11.27 19.5C11.27 19.6339 11.1539 19.75 11.02 19.75H7.5C6.7612 19.75 6.23884 19.7203 5.80366 19.6555Z" fill="#E94057" stroke="#E94057"/>
<path d="M18.1963 4.34455L18.2055 4.34591L18.2148 4.34694C19.7791 4.52075 20.6074 5.05465 21.0813 5.83564C21.5827 6.66191 21.75 7.85808 21.75 9.5V14.5C21.75 16.1412 21.5803 17.3396 21.0745 18.1682C20.5958 18.9523 19.7597 19.4891 18.1851 19.663L18.1851 19.6629L18.1724 19.6646C17.7639 19.7203 17.2389 19.75 16.5 19.75H15.02C14.8861 19.75 14.77 19.6339 14.77 19.5C14.77 19.3661 14.8861 19.25 15.02 19.25H16.5C17.1917 19.25 17.6927 19.2196 18.1087 19.1666C19.1429 19.0541 20.0167 18.8215 20.5707 18.0307C21.0919 17.2869 21.25 16.1496 21.25 14.5V9.5C21.25 7.85001 21.0917 6.71638 20.5754 5.97442C20.0266 5.18573 19.1622 4.95174 18.1439 4.83405C17.6897 4.76969 17.1829 4.75 16.5 4.75H15.02C14.8861 4.75 14.77 4.63386 14.77 4.5C14.77 4.36614 14.8861 4.25 15.02 4.25H16.5C17.2388 4.25 17.7612 4.27973 18.1963 4.34455Z" fill="#E94057" stroke="#E94057"/>
<path d="M15 22.75C14.59 22.75 14.25 22.41 14.25 22V2C14.25 1.59 14.59 1.25 15 1.25C15.41 1.25 15.75 1.59 15.75 2V22C15.75 22.41 15.41 22.75 15 22.75Z" fill="#E94057"/>
<path d="M6.7 13.0002C6.57 13.0002 6.44 12.9702 6.32 12.9202C6.2 12.8702 6.09 12.8002 5.99 12.7102C5.9 12.6102 5.82 12.5002 5.77 12.3802C5.72 12.2602 5.7 12.1302 5.7 12.0002C5.7 11.7402 5.81 11.4802 5.99 11.2902C6.36 10.9202 7.03 10.9202 7.41 11.2902C7.59 11.4802 7.7 11.7402 7.7 12.0002C7.7 12.1302 7.67 12.2602 7.62 12.3802C7.57 12.5002 7.5 12.6102 7.41 12.7102C7.31 12.8002 7.2 12.8702 7.08 12.9202C6.96 12.9702 6.83 13.0002 6.7 13.0002Z" fill="#E94057"/>
<path d="M10.7 13.0002C10.57 13.0002 10.44 12.9702 10.32 12.9202C10.2 12.8702 10.09 12.8002 9.99 12.7102C9.9 12.6102 9.83 12.5002 9.77 12.3802C9.73 12.2602 9.7 12.1302 9.7 12.0002C9.7 11.7402 9.81 11.4802 9.99 11.2902C10.36 10.9202 11.04 10.9202 11.41 11.2902C11.59 11.4802 11.7 11.7402 11.7 12.0002C11.7 12.1302 11.67 12.2602 11.62 12.3802C11.57 12.5002 11.5 12.6102 11.41 12.7102C11.31 12.8002 11.2 12.8702 11.08 12.9202C10.96 12.9702 10.83 13.0002 10.7 13.0002Z" fill="#E94057"/>
</svg>
