<svg width="48" height="60" viewBox="0 0 48 60" fill="none" xmlns="http://www.w3.org/2000/svg">
<path d="M23.2696 0C18.1213 0 14.4167 3.59565 13.8991 8.90741V9.77909L32.8035 28.6835C32.858 28.4928 32.858 28.2749 32.858 28.057V10.1877C32.858 4.14045 28.7993 0 23.2696 0ZM44.2987 51.1291C45.1704 51.9735 46.5596 51.9735 47.3768 51.1291C48.194 50.2574 48.2212 48.8954 47.3768 48.051L3.71142 4.44009C2.86699 3.59565 1.47776 3.56841 0.633325 4.44009C-0.211108 5.25728 -0.211108 6.67375 0.633325 7.49094L44.2987 51.1291ZM2.43115 29.0376C2.43115 40.3149 9.94933 48.0238 20.7363 49.0589V54.5885H10.7393C9.29558 54.5885 8.09703 55.7326 8.09703 57.1763C8.09703 58.5928 9.29558 59.7641 10.7393 59.7641H35.7999C37.2436 59.7641 38.4422 58.5928 38.4422 57.1763C38.4422 55.7326 37.2436 54.5885 35.7999 54.5885H25.8029V49.0589C29.0989 48.732 32.068 47.8058 34.6013 46.3076L30.8695 42.5486C28.6903 43.6381 26.1298 44.2374 23.2696 44.2374C13.9808 44.2374 7.68843 38.1357 7.68843 28.8469V23.6714C7.68843 22.2277 6.48988 21.1108 5.04617 21.1108C3.60246 21.1108 2.43115 22.2277 2.43115 23.6714V29.0376ZM38.0336 33.9135L42.2012 38.054C43.427 35.439 44.0808 32.3881 44.0808 29.0376V23.6714C44.0808 22.2277 42.9095 21.1108 41.4658 21.1108C40.0221 21.1108 38.8508 22.2277 38.8508 23.6714V28.8469C38.8508 30.6992 38.5784 32.3881 38.0336 33.9135ZM23.2696 38.5988C24.3592 38.5988 25.4215 38.4081 26.3749 38.054L13.6267 25.333V28.4111C13.6267 34.4583 17.7399 38.5988 23.2696 38.5988Z" fill="#E94057"/>
</svg>
