<svg width="38" height="30" viewBox="0 0 38 30" fill="none" xmlns="http://www.w3.org/2000/svg">
<path d="M15.6764 30C17.0956 30 20.4808 28.5157 22.598 27.0196C22.819 26.856 23.0052 26.7976 23.1913 26.7976C23.3425 26.8093 23.4821 26.8209 23.6101 26.8209C31.9974 26.8093 38 22.216 38 15.9046C38 9.86209 31.9858 5 24.4942 5C17.0026 5 11 9.86209 11 15.9046C11 19.6681 13.2568 23.0341 17.0724 25.1029C17.2818 25.2314 17.3399 25.4067 17.2352 25.6171C16.5605 26.7508 15.4321 28.0131 14.9668 28.6092C14.4433 29.2754 14.7458 30 15.6764 30Z" fill="#656E7B"/>
<path d="M14.0363 24.7867L14.0169 24.7852H13.9974C13.6588 24.7852 13.3439 24.8989 13.0215 25.1388C11.8401 25.9816 10.2941 26.8285 8.84175 27.4641C8.11579 27.7818 7.4208 28.0434 6.81351 28.2247C6.1976 28.4086 5.70405 28.5 5.36924 28.5C4.95978 28.5 4.82449 28.3468 4.78769 28.2691C4.74722 28.1837 4.72546 27.9812 4.94919 27.6936L4.95016 27.6923C5.06809 27.5397 5.23316 27.338 5.42703 27.1012C6.05402 26.3351 6.98209 25.2013 7.5898 24.1696L7.59927 24.1535L7.60752 24.1368C7.7086 23.9316 7.75782 23.6845 7.67731 23.4308C7.59855 23.1825 7.42139 23.0097 7.23557 22.8944L7.22407 22.8873L7.2122 22.8808C2.95917 20.5511 0.5 16.7982 0.5 12.6494C0.5 6.00588 7.0688 0.5 15.4933 0.5C23.9185 0.5 30.5 6.00637 30.5 12.6494C30.5 19.5798 23.9626 24.7989 14.4775 24.8123L14.4782 25.3123V24.8123C14.3632 24.8123 14.2355 24.8023 14.0702 24.7893L14.0363 24.7867Z" fill="#656E7B" stroke="#FFD8E0"/>
</svg>
