<svg width="21" height="28" viewBox="0 0 21 28" fill="none" xmlns="http://www.w3.org/2000/svg">
<path d="M11.2001 12.8C14.7347 12.8 17.6001 9.93464 17.6001 6.40002C17.6001 2.86539 14.7347 0 11.2001 0C7.66542 0 4.80005 2.86539 4.80005 6.40002C4.80005 9.93464 7.66542 12.8 11.2001 12.8Z" fill="#656E7B"/>
<path d="M19.149 16.4711C18.0539 15.3414 16.5676 14.6538 14.9821 14.5435C11.8988 14.3527 8.80616 14.3527 5.72278 14.5435C4.16144 14.6547 2.69882 15.334 1.62169 16.448C0.563912 17.5422 -0.017616 18.9974 0.000406747 20.505C0.000406747 25.2172 5.55355 27.8271 10.502 27.9816H10.8593C15.6873 28.2484 20.7997 25.6747 20.7997 21.0738V20.5914C20.8173 19.0596 20.2251 17.5815 19.149 16.4711Z" fill="#656E7B"/>
</svg>
