<svg width="19" height="15" viewBox="0 0 19 15" fill="none" xmlns="http://www.w3.org/2000/svg">
<path d="M2.08643 0C1.53307 0 1.00238 0.243133 0.611101 0.675912C0.21982 1.10869 0 1.69567 0 2.30771V12.6924C0 13.3044 0.21982 13.8914 0.611101 14.3242C1.00238 14.757 1.53307 15.0001 2.08643 15.0001H6.25929V0H2.08643Z" fill="#009A49"/>
<path d="M6.25929 0H12.5186V15.0001H6.25929V0Z" fill="#EEEEEE"/>
<path d="M16.6914 0H12.5186V15.0001H16.6914C17.2448 15.0001 17.7755 14.757 18.1668 14.3242C18.558 13.8914 18.7779 13.3044 18.7779 12.6924V2.30771C18.7779 1.69567 18.558 1.10869 18.1668 0.675912C17.7755 0.243133 17.2448 0 16.6914 0Z" fill="#009A49"/>
</svg>
