<svg width="24" height="24" viewBox="0 0 24 24" fill="none" xmlns="http://www.w3.org/2000/svg">
<path d="M12 15.8299C9.88613 15.8299 8.16998 14.1138 8.16998 11.9999C8.16998 9.88606 9.88613 8.16992 12 8.16992C14.1138 8.16992 15.83 9.88606 15.83 11.9999C15.83 14.1138 14.1138 15.8299 12 15.8299ZM12 8.66992C10.1638 8.66992 8.66998 10.1638 8.66998 11.9999C8.66998 13.8361 10.1638 15.3299 12 15.3299C13.8361 15.3299 15.33 13.8361 15.33 11.9999C15.33 10.1638 13.8361 8.66992 12 8.66992Z" fill="#605F62" stroke="#605F62"/>
<path d="M2.67139 14.7313L2.67069 14.7302C2.20364 14.0032 1.95502 13.0176 1.95502 12.0042C1.95502 10.9911 2.2035 10.0026 2.67115 9.27C5.05212 5.55787 8.45898 3.48047 12 3.48047C15.5412 3.48047 18.9479 5.55804 21.3186 9.26962L21.3193 9.27072C21.7864 9.99772 22.035 10.9833 22.035 11.9967C22.035 13.01 21.7864 13.9987 21.3186 14.7314C18.9479 18.4429 15.5412 20.5205 12 20.5205C8.44857 20.5205 5.04199 18.4427 2.67139 14.7313ZM12 3.98047C8.55676 3.98047 5.325 6.04751 3.09871 9.54121C2.65855 10.2282 2.45752 11.1318 2.45752 12.0005C2.45752 12.8689 2.65844 13.7722 3.09834 14.4591C5.32464 17.9532 8.55657 20.0205 12 20.0205C15.4433 20.0205 18.675 17.9534 20.9013 14.4597C21.3415 13.7727 21.5425 12.8691 21.5425 12.0005C21.5425 11.1317 21.3414 10.2279 20.9011 9.54088C18.6748 6.04738 15.4432 3.98047 12 3.98047Z" fill="#605F62" stroke="#605F62"/>
</svg>
