<svg width="19" height="19" viewBox="0 0 19 19" fill="none" xmlns="http://www.w3.org/2000/svg">
<path d="M5.54168 12.2709C6.59224 12.2709 7.39664 12.4641 8.62603 12.9855L9.07867 13.1834L9.57315 13.4099L10.3004 13.7498L10.7191 13.9383C10.7856 13.9676 10.8505 13.9958 10.9139 14.0229L11.278 14.1736C12.149 14.5203 12.744 14.6459 13.4584 14.6459C14.209 14.6459 15.0436 14.4456 15.8857 14.1087C16.186 13.9886 16.4651 13.8598 16.7144 13.7316L16.9271 13.6183L17.0094 13.5712C17.3843 13.3462 17.8706 13.4678 18.0955 13.8427C18.3205 14.2176 18.1989 14.7039 17.824 14.9289L17.6094 15.0513L17.3428 15.1903C17.1 15.3118 16.807 15.4455 16.4737 15.5788C15.4603 15.9842 14.4394 16.2292 13.4584 16.2292C12.4078 16.2292 11.6034 16.036 10.374 15.5146L9.92137 15.3167L9.42688 15.0902L8.69967 14.7503L8.28093 14.5617C8.21445 14.5325 8.14955 14.5043 8.08611 14.4771L7.72205 14.3265C6.85106 13.9798 6.256 13.8542 5.54168 13.8542C4.79101 13.8542 3.9564 14.0545 3.11435 14.3913C2.81404 14.5115 2.53497 14.6403 2.28559 14.7685L2.07291 14.8818L1.99066 14.9289C1.61574 15.1538 1.12945 15.0323 0.904503 14.6573C0.679552 14.2824 0.801124 13.7961 1.17604 13.5712L1.39065 13.4488L1.65725 13.3098C1.90002 13.1883 2.193 13.0546 2.52631 12.9212C3.53973 12.5159 4.56059 12.2709 5.54168 12.2709Z" fill="#E94057"/>
<path d="M5.54168 7.52087C6.59224 7.52087 7.39664 7.71407 8.62603 8.2355L9.07867 8.43339L9.57315 8.65985L10.3004 8.99976L10.7191 9.18834C10.7856 9.2176 10.8505 9.24579 10.9139 9.27295L11.278 9.42362C12.149 9.77026 12.744 9.89587 13.4584 9.89587C14.209 9.89587 15.0436 9.69557 15.8857 9.35875C16.186 9.23862 16.4651 9.10982 16.7144 8.98157L16.9271 8.86832L17.0094 8.82119C17.3843 8.59624 17.8706 8.71781 18.0955 9.09273C18.3205 9.46765 18.1989 9.95394 17.824 10.1789L17.6094 10.3013L17.3428 10.4403C17.1 10.5618 16.807 10.6955 16.4737 10.8288C15.4603 11.2342 14.4394 11.4792 13.4584 11.4792C12.4078 11.4792 11.6034 11.286 10.374 10.7646L9.92137 10.5667L9.42688 10.3402L8.69967 10.0003L8.28093 9.81174C8.21445 9.78248 8.14955 9.75429 8.08611 9.72713L7.72205 9.57646C6.85106 9.22982 6.256 9.10421 5.54168 9.10421C4.79101 9.10421 3.9564 9.30451 3.11435 9.64133C2.81404 9.76146 2.53497 9.89026 2.28559 10.0185L2.07291 10.1318L1.99066 10.1789C1.61574 10.4038 1.12945 10.2823 0.904503 9.90735C0.679552 9.53243 0.801124 9.04614 1.17604 8.82119L1.39065 8.69882L1.65725 8.55978C1.90002 8.43832 2.193 8.30457 2.52631 8.17125C3.53973 7.76588 4.56059 7.52087 5.54168 7.52087Z" fill="#E94057"/>
<path d="M5.54168 2.77087C6.59224 2.77087 7.39664 2.96407 8.62603 3.4855L9.07867 3.68339L9.57315 3.90985L10.3004 4.24976L10.7191 4.43835C10.7856 4.4676 10.8505 4.49579 10.9139 4.52295L11.278 4.67362C12.149 5.02026 12.744 5.14587 13.4584 5.14587C14.209 5.14587 15.0436 4.94557 15.8857 4.60875C16.186 4.48862 16.4651 4.35982 16.7144 4.23157L16.9271 4.11832L17.0094 4.07119C17.3843 3.84624 17.8706 3.96781 18.0955 4.34273C18.3205 4.71765 18.1989 5.20394 17.824 5.42889L17.6094 5.55126L17.3428 5.6903C17.1 5.81176 16.807 5.94551 16.4737 6.07883C15.4603 6.4842 14.4394 6.72921 13.4584 6.72921C12.4078 6.72921 11.6034 6.53602 10.374 6.01458L9.92137 5.81669L9.42688 5.59023L8.69967 5.25032L8.28093 5.06174C8.21445 5.03248 8.14955 5.00429 8.08611 4.97713L7.72205 4.82646C6.85106 4.47982 6.256 4.35421 5.54168 4.35421C4.79101 4.35421 3.9564 4.55451 3.11435 4.89133C2.81404 5.01146 2.53497 5.14026 2.28559 5.26851L2.07291 5.38176L1.99066 5.42889C1.61574 5.65384 1.12945 5.53227 0.904503 5.15735C0.679552 4.78243 0.801124 4.29614 1.17604 4.07119L1.39065 3.94882L1.65725 3.80978C1.90002 3.68832 2.193 3.55457 2.52631 3.42125C3.53973 3.01588 4.56059 2.77087 5.54168 2.77087Z" fill="#E94057"/>
</svg>
