<svg width="360" height="686" viewBox="0 0 360 686" fill="none" xmlns="http://www.w3.org/2000/svg">
<path d="M2.50773 58.305C1.81514 61.4376 1.21108 64.7118 0.698902 68.131L1.68787 68.2792C1.43618 69.9594 1.20675 71.6754 1.00001 73.4276C1.00063 75.0156 1.0265 76.6092 1.07718 78.2083L0.0776843 78.2399C0.180961 81.4981 0.386609 84.778 0.691001 88.0783L1.68677 87.9864C1.98739 91.2458 2.38496 94.5261 2.87605 97.8262L1.88695 97.9734C2.36199 101.166 2.92395 104.376 3.56966 107.602L4.55022 107.406C5.1928 110.617 5.91887 113.845 6.72536 117.089L5.7549 117.331C6.5373 120.478 7.39489 123.64 8.3248 126.816L9.2845 126.535C10.196 129.648 11.1774 132.774 12.2261 135.914L11.2776 136.231C12.3248 139.366 13.4386 142.513 14.6164 145.671L15.5533 145.322C16.6748 148.329 17.8545 151.347 19.0903 154.375L18.1644 154.753C19.4039 157.79 20.6995 160.837 22.0487 163.893L22.9635 163.489C24.2854 166.483 25.6591 169.485 27.0825 172.496L26.1784 172.923C27.5635 175.853 28.9954 178.79 30.4719 181.734L31.3658 181.286C32.839 184.223 34.357 187.167 35.9177 190.118L35.0338 190.586C36.5638 193.478 38.1347 196.377 39.7446 199.28L40.6191 198.796C42.1936 201.635 43.8055 204.48 45.4532 207.33L44.5874 207.831C46.238 210.685 47.9241 213.545 49.6442 216.408L50.5014 215.893C52.1854 218.696 53.9021 221.503 55.6498 224.314L54.8005 224.842C56.5221 227.61 58.2736 230.382 60.0533 233.156L60.895 232.616C62.6723 235.387 64.4779 238.16 66.3102 240.936L65.4757 241.487C67.2862 244.229 69.1226 246.973 70.9834 249.719L71.8112 249.158C73.6405 251.857 75.4936 254.558 77.3688 257.26L76.5473 257.83C78.4246 260.535 80.3241 263.241 82.2444 265.947L83.06 265.368C84.9665 268.055 86.8936 270.743 88.8398 273.431L88.0298 274.017C89.9468 276.665 91.8822 279.313 93.8347 281.96L94.6394 281.366C96.5902 284.011 98.5582 286.656 100.542 289.3L99.7419 289.9C101.726 292.545 103.726 295.189 105.741 297.831L106.536 297.225C108.52 299.828 110.517 302.429 112.528 305.029L111.736 305.64C113.748 308.242 115.772 310.841 117.808 313.439L118.595 312.822C120.629 315.419 122.675 318.013 124.73 320.604L123.947 321.226C125.992 323.804 128.046 326.38 130.11 328.953L130.89 328.328C132.948 330.894 135.014 333.457 137.088 336.018L136.311 336.647C138.386 339.208 140.468 341.767 142.556 344.321L143.33 343.688C143.667 344.101 144.005 344.514 144.343 344.927C144.953 344.739 145.564 344.551 146.176 344.363L146.469 345.319C149.579 344.364 152.703 343.412 155.837 342.464L155.548 341.507C158.678 340.559 161.818 339.614 164.964 338.671L165.252 339.629C168.381 338.69 171.516 337.754 174.654 336.818L174.368 335.86C176.803 335.134 179.239 334.408 181.675 333.683L183.784 333.055L184.069 334.014C187.208 333.079 190.345 332.144 193.476 331.209L193.19 330.251C196.334 329.311 199.473 328.371 202.603 327.429L202.891 328.387C206.029 327.442 209.157 326.496 212.272 325.548L211.981 324.591C215.132 323.632 218.268 322.67 221.388 321.704L221.683 322.659C224.817 321.689 227.932 320.716 231.026 319.738L230.725 318.784C233.874 317.789 237 316.788 240.099 315.783L240.408 316.734C243.544 315.716 246.651 314.693 249.727 313.663L249.41 312.715C252.535 311.668 255.627 310.614 258.681 309.553L259.01 310.498C262.146 309.407 265.243 308.308 268.295 307.2L267.954 306.26C271.046 305.137 274.091 304.004 277.085 302.861L277.441 303.795C280.56 302.604 283.624 301.4 286.625 300.183L286.249 299.257C289.334 298.006 292.352 296.742 295.297 295.462L295.695 296.38C298.735 295.059 301.698 293.723 304.577 292.368L304.152 291.463C307.186 290.035 310.126 288.588 312.964 287.12L313.424 288.008C316.422 286.456 319.309 284.879 322.072 283.276L321.57 282.411C324.474 280.727 327.238 279.015 329.854 277.272L330.408 278.104C333.224 276.228 335.87 274.315 338.333 272.363L337.711 271.579C340.351 269.486 342.772 267.351 344.96 265.17L345.666 265.878C348.086 263.466 350.229 260.993 352.072 258.455L351.263 257.867C353.22 255.172 354.826 252.411 356.058 249.577L356.975 249.975C358.293 246.943 359.197 243.819 359.654 240.597L358.664 240.456C358.887 238.886 359 237.292 359 235.671C359 234.163 358.89 232.583 358.671 230.934L359.663 230.803C359.257 227.736 358.488 224.461 357.381 221.003L356.428 221.308C355.482 218.352 354.283 215.255 352.845 212.031L353.759 211.623C352.457 208.706 350.965 205.692 349.292 202.593L348.412 203.068C346.88 200.23 345.194 197.317 343.364 194.341L344.215 193.817C342.508 191.04 340.675 188.208 338.726 185.331L337.898 185.892C336.088 183.22 334.176 180.508 332.168 177.76L332.975 177.17C331.029 174.507 328.993 171.812 326.872 169.09L326.083 169.705C324.064 167.114 321.968 164.499 319.799 161.865L320.572 161.229C318.48 158.688 316.321 156.129 314.1 153.557L313.343 154.211C311.164 151.688 308.925 149.153 306.628 146.608L307.371 145.938C305.167 143.497 302.912 141.047 300.607 138.593L299.878 139.278C297.594 136.845 295.262 134.408 292.885 131.97L293.601 131.272C291.288 128.901 288.934 126.528 286.539 124.158L285.836 124.868C283.464 122.52 281.053 120.173 278.606 117.832L279.297 117.11C276.892 114.808 274.451 112.511 271.979 110.222L271.3 110.956C268.848 108.685 266.364 106.423 263.852 104.171L264.52 103.427C262.032 101.196 259.516 98.9768 256.974 96.7708L256.319 97.526C253.791 95.3321 251.239 93.1515 248.664 90.9871L249.308 90.2216C246.743 88.066 244.156 85.9263 241.55 83.8053L240.919 84.5809C238.319 82.4651 235.699 80.3679 233.063 78.2921L233.681 77.5064C231.043 75.4295 228.388 73.3739 225.719 71.3423L225.113 72.1381C222.441 70.1046 219.755 68.0953 217.056 66.1129L217.648 65.307C214.937 63.3153 212.214 61.3506 209.481 59.4157L208.903 60.2318C206.157 58.2878 203.402 56.374 200.64 54.4932L201.203 53.6666C198.418 51.7699 195.625 49.9067 192.829 48.0797L192.282 48.9169C189.458 47.0726 186.63 45.2654 183.801 43.4984L184.331 42.6503C181.47 40.8633 178.607 39.1172 175.745 37.4151L175.234 38.2746C172.325 36.5445 169.418 34.8601 166.516 33.2246L167.007 32.3534C164.069 30.6978 161.135 29.0921 158.209 27.5394L157.74 28.4227C154.735 26.8286 151.739 25.2908 148.755 23.8129L149.199 22.9168C146.182 21.4229 143.177 19.9898 140.186 18.6214L139.77 19.5307C136.659 18.1067 133.564 16.7532 130.491 15.4743L130.875 14.5511C127.739 13.2463 124.625 12.0185 121.535 10.8723L121.187 11.8099C118.001 10.6276 114.842 9.53275 111.716 8.53016L112.021 7.57793C108.749 6.52852 105.511 5.57933 102.312 4.73594L102.057 5.70289C98.7854 4.84006 95.5568 4.08904 92.3771 3.45562L92.5725 2.47489C89.196 1.80226 85.8726 1.26098 82.6088 0.858167L82.4863 1.85064C79.0871 1.4311 75.7561 1.16335 72.5008 1.05499L72.534 0.0555435C69.1053 -0.0585851 65.7566 0.0022895 62.4967 0.247516L62.5717 1.2447C59.2056 1.49792 55.9394 1.94975 52.7825 2.60975L52.5779 1.63091C49.2368 2.32941 46.0122 3.25862 42.9155 4.43064L43.2694 5.3659C40.1626 6.54173 37.1892 7.96511 34.36 9.64825L33.8488 8.78884C30.9998 10.4838 28.2927 12.4384 25.7393 14.6652L26.3966 15.4189C23.9804 17.5261 21.7024 19.883 19.5731 22.5017L18.7972 21.8708C16.7462 24.3932 14.8327 27.1525 13.0656 30.1581L13.9276 30.6649C12.3035 33.4273 10.8027 36.4041 9.43304 39.6039L8.51372 39.2104C7.26766 42.1214 6.1303 45.2117 5.10686 48.4869L6.06134 48.7852C5.10007 51.8614 4.23939 55.1049 3.48415 58.5209L2.50773 58.305ZM127.715 351.191C130.809 350.2 133.925 349.215 137.06 348.234L137.359 349.188C139.447 348.535 141.544 347.884 143.647 347.234C145.117 349.027 146.589 350.818 148.063 352.607L148.835 351.972C150.932 354.517 153.034 357.058 155.14 359.595L154.37 360.234C156.477 362.771 158.586 365.304 160.698 367.832L161.466 367.191C163.578 369.72 165.692 372.244 167.807 374.762L167.042 375.406C169.171 377.941 171.301 380.471 173.431 382.995L174.195 382.35C176.325 384.874 178.453 387.392 180.581 389.903L179.817 390.549C181.945 393.061 184.071 395.567 186.193 398.066L186.955 397.419C189.102 399.946 191.245 402.466 193.384 404.98L192.623 405.628C194.769 408.15 196.911 410.665 199.047 413.171L199.808 412.523C201.332 414.311 202.852 416.095 204.369 417.874C204.979 418.59 205.588 419.305 206.197 420.02L205.436 420.668C207.584 423.189 209.725 425.701 211.856 428.204L212.618 427.556C214.774 430.088 216.92 432.61 219.056 435.123L218.295 435.771C220.431 438.283 222.556 440.787 224.669 443.28L225.432 442.633C227.569 445.153 229.693 447.663 231.803 450.163L231.039 450.808C233.194 453.36 235.335 455.901 237.459 458.431L238.225 457.787C240.35 460.317 242.46 462.836 244.552 465.342L243.784 465.983C245.897 468.514 247.992 471.034 250.067 473.54L250.837 472.902C252.979 475.487 255.099 478.059 257.197 480.617L256.424 481.251C258.521 483.808 260.595 486.35 262.645 488.877L263.421 488.247C265.503 490.814 267.561 493.366 269.591 495.901L268.81 496.526C270.914 499.154 272.989 501.765 275.032 504.358L275.818 503.739C277.863 506.334 279.876 508.911 281.857 511.47L281.066 512.082C283.107 514.718 285.112 517.334 287.078 519.93L287.875 519.326C289.91 522.01 291.903 524.672 293.854 527.312L293.05 527.906C294.998 530.542 296.903 533.156 298.763 535.745L299.575 535.162C301.562 537.928 303.497 540.668 305.377 543.38L304.555 543.95C306.453 546.689 308.296 549.399 310.079 552.079L310.911 551.526C312.765 554.313 314.555 557.069 316.278 559.792L315.432 560.326C317.245 563.192 318.983 566.021 320.64 568.811L321.5 568.3C323.193 571.151 324.805 573.962 326.329 576.732L325.453 577.214C327.111 580.228 328.665 583.192 330.109 586.104L331.005 585.66C332.486 588.645 333.853 591.578 335.1 594.457L334.182 594.854C335.553 598.02 336.777 601.116 337.846 604.141L338.789 603.808C339.923 607.017 340.885 610.15 341.665 613.202L340.696 613.45C341.531 616.719 342.154 619.888 342.553 622.956L343.545 622.827C343.993 626.266 344.166 629.586 344.047 632.781L343.047 632.743C342.924 636.046 342.483 639.205 341.708 642.214L342.676 642.464C341.852 645.663 340.658 648.706 339.072 651.587L338.196 651.105C336.684 653.852 334.804 656.451 332.532 658.895L333.265 659.576C331.168 661.833 328.748 663.958 325.99 665.946L325.405 665.135C322.906 666.937 320.118 668.628 317.027 670.204L317.481 671.095C314.722 672.502 311.73 673.816 308.497 675.034L308.145 674.098C305.252 675.187 302.161 676.2 298.866 677.134L299.138 678.096C296.127 678.95 292.95 679.737 289.601 680.457L289.391 679.479C286.26 680.152 282.976 680.766 279.536 681.32L279.695 682.307C276.663 682.795 273.513 683.235 270.241 683.628L270.121 682.636C266.862 683.027 263.48 683.371 259.972 683.667L260.056 684.663C256.929 684.927 253.703 685.152 250.378 685.339L250.322 684.34C247.201 684.515 243.991 684.656 240.69 684.761L240.722 685.761C237.414 685.867 234.016 685.938 230.527 685.973L230.517 684.973C228.776 684.991 227.012 685 225.225 685C223.603 685 221.97 684.955 220.327 684.866L220.273 685.864C217.006 685.687 213.703 685.337 210.369 684.823L210.521 683.834C207.321 683.341 204.091 682.694 200.837 681.901L200.6 682.873C197.425 682.1 194.23 681.19 191.018 680.149L191.326 679.197C188.238 678.196 185.134 677.074 182.019 675.835L181.65 676.764C178.609 675.555 175.56 674.237 172.505 672.815L172.927 671.909C169.973 670.534 167.014 669.061 164.053 667.496L163.586 668.38C160.685 666.846 157.785 665.225 154.887 663.52L155.394 662.659C152.574 661 149.756 659.261 146.945 657.448L146.403 658.288C143.637 656.504 140.877 654.648 138.127 652.724L138.7 651.905C136.009 650.022 133.326 648.074 130.655 646.064L130.054 646.863C127.42 644.882 124.799 642.841 122.192 640.745L122.819 639.966C120.258 637.907 117.711 635.794 115.181 633.63L114.531 634.39C112.021 632.244 109.528 630.049 107.054 627.807L107.726 627.066C105.281 624.852 102.856 622.592 100.452 620.292L99.7605 621.014C97.368 618.724 94.9968 616.393 92.6496 614.025L93.3599 613.321C91.0333 610.974 88.7303 608.589 86.4533 606.171L85.7253 606.857C83.453 604.443 81.2067 601.997 78.9888 599.52L79.7338 598.853C77.5251 596.386 75.3446 593.889 73.1948 591.365L72.4335 592.014C70.2789 589.484 68.1551 586.928 66.0646 584.348L66.8416 583.718C64.7538 581.141 62.6994 578.541 60.6807 575.92L59.8885 576.53C57.8582 573.894 55.8639 571.237 53.9084 568.563L54.7156 567.973C52.7529 565.289 50.8292 562.587 48.9472 559.871L48.1253 560.441C46.225 557.698 44.3669 554.942 42.5538 552.174L43.3903 551.626C41.5661 548.841 39.7875 546.044 38.0573 543.24L37.2062 543.766C35.4527 540.924 33.7486 538.074 32.0967 535.22L32.9622 534.719C31.2937 531.836 29.6787 528.948 28.1202 526.06L27.2402 526.535C25.6472 523.583 24.1128 520.631 22.6402 517.681L23.5349 517.234C22.0401 514.24 20.6093 511.249 19.2458 508.267L18.3363 508.682C16.939 505.626 15.6118 502.577 14.3581 499.54L15.2825 499.158C14.0036 496.061 12.8019 492.976 11.6809 489.909L10.7417 490.253C9.58496 487.088 8.51355 483.943 7.53147 480.82L8.48539 480.52C7.47781 477.317 6.56505 474.14 5.75135 470.994L4.78321 471.244C3.93665 467.972 3.19643 464.732 2.56742 461.531L3.54865 461.338C2.89976 458.036 2.37032 454.778 1.96548 451.571L0.973349 451.696C0.548699 448.331 0.259885 445.02 0.113052 441.77L1.11203 441.725C1.0376 440.078 1 438.447 1 436.833C1 435.209 1.10735 433.611 1.31815 432.036L0.326991 431.903C0.759811 428.67 1.61716 425.533 2.86828 422.486L3.79332 422.866C4.97206 419.996 6.51232 417.2 8.39146 414.471L7.56788 413.904C9.352 411.313 11.4308 408.79 13.7818 406.33L14.5049 407.021C16.6437 404.782 19.0151 402.592 21.6032 400.446L20.965 399.676C23.39 397.665 25.9993 395.697 28.7788 393.768L29.349 394.589C31.9357 392.794 34.6733 391.031 37.5506 389.298L37.0348 388.441C39.777 386.79 42.6432 385.167 45.6236 383.571L46.0957 384.452C48.8973 382.951 51.8014 381.473 54.8 380.016L54.363 379.117C57.2326 377.723 60.1872 376.348 63.2196 374.991L63.628 375.904C66.5646 374.59 69.5752 373.293 72.6533 372.011L72.2688 371.088C75.2473 369.847 78.2879 368.621 81.385 367.409L81.7496 368.34C84.7395 367.169 87.7824 366.01 90.8732 364.863L90.525 363.925C93.5736 362.793 96.6681 361.672 99.8034 360.56L100.138 361.503C103.177 360.425 106.255 359.356 109.367 358.296L109.044 357.349C112.119 356.301 115.227 355.261 118.363 354.228L118.676 355.177C121.764 354.16 124.88 353.149 128.02 352.143L127.715 351.191Z" fill="white" stroke="#E94057" stroke-width="2" stroke-dasharray="10 10"/>
</svg>
