<svg width="25" height="25" viewBox="0 0 25 25" fill="none" xmlns="http://www.w3.org/2000/svg">
<path d="M12.6524 22.7641C18.3212 22.6799 22.8485 18.0162 22.7643 12.3474C22.6801 6.67859 18.0164 2.15135 12.3476 2.23551C6.67882 2.31968 2.15157 6.98338 2.23574 12.6522C2.3199 18.321 6.98361 22.8482 12.6524 22.7641Z" stroke="#E94057" stroke-width="1.5" stroke-linecap="round" stroke-linejoin="round"/>
<path d="M8.25711 3.32319L9.28354 3.30795C7.371 9.33201 7.46732 15.819 9.55785 21.7837L8.53142 21.7989" stroke="#E94057" stroke-width="1.5" stroke-linecap="round" stroke-linejoin="round"/>
<path d="M15.4422 3.21696C17.5327 9.18158 17.629 15.6686 15.7165 21.6927" stroke="#E94057" stroke-width="1.5" stroke-linecap="round" stroke-linejoin="round"/>
<path d="M3.32311 16.7433L3.30787 15.7169C9.33193 17.6294 15.819 17.5331 21.7836 15.4426L21.7988 16.469" stroke="#E94057" stroke-width="1.5" stroke-linecap="round" stroke-linejoin="round"/>
<path d="M3.21644 9.55809C9.18106 7.46756 15.6681 7.37124 21.6921 9.28378" stroke="#E94057" stroke-width="1.5" stroke-linecap="round" stroke-linejoin="round"/>
</svg>
