<svg width="19" height="19" viewBox="0 0 19 19" fill="none" xmlns="http://www.w3.org/2000/svg">
<path fill-rule="evenodd" clip-rule="evenodd" d="M6.41693 2.021C6.55103 1.75279 6.82516 1.58337 7.12502 1.58337H11.875C12.1749 1.58337 12.449 1.75279 12.5831 2.021L13.5518 3.95837H16.2292C17.3223 3.95837 18.2084 4.84448 18.2084 5.93754V15.4375C18.2084 16.5306 17.3223 17.4167 16.2292 17.4167H2.77085C1.67779 17.4167 0.791687 16.5306 0.791687 15.4375V5.93754C0.791687 4.84448 1.67779 3.95837 2.77085 3.95837H5.44824L6.41693 2.021ZM7.21846 3.95837H11.7816L11.3857 3.16671H7.6143L7.21846 3.95837ZM2.77085 5.54171C2.55224 5.54171 2.37502 5.71893 2.37502 5.93754V15.4375C2.37502 15.6562 2.55224 15.8334 2.77085 15.8334H16.2292C16.4478 15.8334 16.625 15.6562 16.625 15.4375V5.93754C16.625 5.71893 16.4478 5.54171 16.2292 5.54171H2.77085ZM5.54169 10.6875C5.54169 8.5014 7.31388 6.72921 9.50002 6.72921C11.6862 6.72921 13.4584 8.5014 13.4584 10.6875C13.4584 12.8737 11.6862 14.6459 9.50002 14.6459C7.31388 14.6459 5.54169 12.8737 5.54169 10.6875ZM9.50002 8.31254C8.18834 8.31254 7.12502 9.37586 7.12502 10.6875C7.12502 11.9992 8.18834 13.0625 9.50002 13.0625C10.8117 13.0625 11.875 11.9992 11.875 10.6875C11.875 9.37586 10.8117 8.31254 9.50002 8.31254Z" fill="#E94057"/>
</svg>
