<svg width="19" height="19" viewBox="0 0 19 19" fill="none" xmlns="http://www.w3.org/2000/svg">
<path fill-rule="evenodd" clip-rule="evenodd" d="M16.7193 0.961609C16.9097 1.11173 17.0208 1.34083 17.0208 1.5833V4.7833C17.0211 4.79454 17.0211 4.80575 17.0208 4.81692V13.6166C17.0208 14.8409 16.0284 15.8333 14.8041 15.8333H13.2604C12.058 15.8333 11.0833 14.8586 11.0833 13.6562C11.0833 12.4538 12.058 11.4791 13.2604 11.4791H15.4375V5.80043L7.12498 7.7685V15.2C7.12498 16.4242 6.13253 17.4166 4.90831 17.4166H3.7604C2.55803 17.4166 1.58331 16.4419 1.58331 15.2396C1.58331 14.0372 2.55803 13.0625 3.7604 13.0625H5.54165V7.15851C5.54141 7.14728 5.54141 7.13608 5.54165 7.12492V3.9583C5.54165 3.59224 5.79261 3.27392 6.14856 3.18849L16.0444 0.813493C16.2802 0.756907 16.5289 0.811489 16.7193 0.961609ZM7.12498 6.1414L15.4375 4.17333V2.58745L7.12498 4.58245V6.1414ZM5.54165 14.6458H3.7604C3.43248 14.6458 3.16665 14.9116 3.16665 15.2396C3.16665 15.5675 3.43248 15.8333 3.7604 15.8333H4.90831C5.25808 15.8333 5.54165 15.5497 5.54165 15.2V14.6458ZM15.4375 13.0625H13.2604C12.9325 13.0625 12.6666 13.3283 12.6666 13.6562C12.6666 13.9841 12.9325 14.25 13.2604 14.25H14.8041C15.1539 14.25 15.4375 13.9664 15.4375 13.6166V13.0625Z" fill="#E94057"/>
</svg>
