<svg width="43" height="34" viewBox="0 0 43 34" fill="none" xmlns="http://www.w3.org/2000/svg">
<path d="M5.72058 33.4661H37.262C41.0178 33.4661 43 31.527 43 27.822V9.64335C43 5.93836 41.0178 3.99931 37.262 3.99931H32.6369C31.2806 3.99931 30.8459 3.77424 29.9939 2.89127L28.6203 1.41967C27.7161 0.467451 26.7946 0 25.021 0H17.8746C16.1011 0 15.1795 0.467451 14.2754 1.41967L12.9017 2.89127C12.0671 3.75692 11.615 3.99931 10.2588 3.99931H5.72058C1.96482 3.99931 0 5.93836 0 9.64335V27.822C0 31.527 1.96482 33.4661 5.72058 33.4661ZM21.4913 28.0298C16.2924 28.0298 12.1193 23.8746 12.1193 18.6807C12.1193 13.4695 16.2924 9.3144 21.4913 9.3144C26.7076 9.3144 30.8807 13.4695 30.8807 18.6807C30.8807 23.8746 26.7076 28.0298 21.4913 28.0298ZM31.9935 12.3096C31.9935 11.0803 33.0542 10.0069 34.3235 10.0069C35.5754 10.0069 36.6361 11.0803 36.6361 12.3096C36.6361 13.5907 35.5754 14.5949 34.3235 14.6122C33.0542 14.6122 31.9935 13.608 31.9935 12.3096ZM21.4913 24.8961C24.9515 24.8961 27.7335 22.126 27.7335 18.6807C27.7335 15.2181 24.9515 12.4481 21.4913 12.4481C18.0485 12.4481 15.2665 15.2181 15.2665 18.6807C15.2665 22.126 18.0659 24.8961 21.4913 24.8961Z" fill="#E94057"/>
</svg>
