<svg width="25" height="20" viewBox="0 0 25 20" fill="none" xmlns="http://www.w3.org/2000/svg">
<path d="M16.5466 10.0002V4.5835C16.5466 2.51243 14.5262 0.833496 12.0339 0.833496C9.54158 0.833496 7.52119 2.51243 7.52119 4.5835V10.0002C7.52119 12.0712 9.54158 13.7502 12.0339 13.7502C14.5262 13.7502 16.5466 12.0712 16.5466 10.0002Z" fill="#E94057"/>
<path d="M4.51271 8.75016C5.06656 8.75016 5.51554 9.12326 5.51554 9.5835C5.51554 12.575 8.43389 15.0002 12.0339 15.0002C15.6339 15.0002 18.5523 12.575 18.5523 9.5835C18.5523 9.12326 19.0012 8.75016 19.5551 8.75016C20.1089 8.75016 20.5579 9.12326 20.5579 9.5835C20.5579 13.2136 17.2718 16.2059 13.0367 16.6183V18.3335C13.0367 18.7937 12.5877 19.1668 12.0339 19.1668C11.4801 19.1668 11.0311 18.7937 11.0311 18.3335V16.6183C6.79596 16.2059 3.50989 13.2136 3.50989 9.5835C3.50989 9.12326 3.95887 8.75016 4.51271 8.75016Z" fill="#E94057"/>
</svg>
