<svg width="19" height="19" viewBox="0 0 19 19" fill="none" xmlns="http://www.w3.org/2000/svg">
<path d="M6.33335 9.49996C6.77058 9.49996 7.12502 9.8544 7.12502 10.2916V11.0833H7.91669C8.35391 11.0833 8.70835 11.4377 8.70835 11.875C8.70835 12.3122 8.35391 12.6666 7.91669 12.6666H7.12502V13.4583C7.12502 13.8955 6.77058 14.25 6.33335 14.25C5.89613 14.25 5.54169 13.8955 5.54169 13.4583V12.6666H4.75002C4.3128 12.6666 3.95835 12.3122 3.95835 11.875C3.95835 11.4377 4.3128 11.0833 4.75002 11.0833H5.54169V10.2916C5.54169 9.8544 5.89613 9.49996 6.33335 9.49996Z" fill="#E94057"/>
<path fill-rule="evenodd" clip-rule="evenodd" d="M12.6667 9.49996C11.355 9.49996 10.2917 10.5633 10.2917 11.875C10.2917 13.1866 11.355 14.25 12.6667 14.25C13.9784 14.25 15.0417 13.1866 15.0417 11.875C15.0417 10.5633 13.9784 9.49996 12.6667 9.49996ZM11.875 11.875C11.875 11.4377 12.2295 11.0833 12.6667 11.0833C13.1039 11.0833 13.4584 11.4377 13.4584 11.875C13.4584 12.3122 13.1039 12.6666 12.6667 12.6666C12.2295 12.6666 11.875 12.3122 11.875 11.875Z" fill="#E94057"/>
<path fill-rule="evenodd" clip-rule="evenodd" d="M12.6667 0.791626C13.1039 0.791626 13.4584 1.14607 13.4584 1.58329V3.8452C13.4584 4.28242 13.1039 4.63686 12.6667 4.63686H10.2917V6.33329H12.6667C15.7273 6.33329 18.2084 8.81438 18.2084 11.875C18.2084 14.9355 15.7273 17.4166 12.6667 17.4166H6.33335C3.27278 17.4166 0.791687 14.9355 0.791687 11.875C0.791687 8.81438 3.27278 6.33329 6.33335 6.33329H8.70835V3.8452C8.70835 3.40797 9.0628 3.05353 9.50002 3.05353H11.875V1.58329C11.875 1.14607 12.2295 0.791626 12.6667 0.791626ZM6.33335 7.91663C4.14723 7.91663 2.37502 9.68883 2.37502 11.875C2.37502 14.0611 4.14723 15.8333 6.33335 15.8333H12.6667C14.8528 15.8333 16.625 14.0611 16.625 11.875C16.625 9.68883 14.8528 7.91663 12.6667 7.91663H6.33335Z" fill="#E94057"/>
</svg>
