<svg width="32" height="32" viewBox="0 0 32 32" fill="none" xmlns="http://www.w3.org/2000/svg">
<path d="M14.3134 28.0001C15.2471 28.0001 17.4742 26.7631 18.8671 25.5164C19.0125 25.3801 19.135 25.3314 19.2574 25.3314C19.3569 25.3411 19.4487 25.3509 19.5329 25.3509C25.0509 25.3411 29 21.5134 29 16.2539C29 11.2185 25.0433 7.16675 20.1146 7.16675C15.1859 7.16675 11.2368 11.2185 11.2368 16.2539C11.2368 19.3901 12.7215 22.1952 15.2318 23.9191C15.3696 24.0263 15.4078 24.1724 15.339 24.3477C14.8951 25.2924 14.1527 26.3443 13.8466 26.8411C13.5022 27.3962 13.7012 28.0001 14.3134 28.0001Z" fill="#DC143C"/>
<path d="M13.258 23.5734L13.2335 23.571H13.2088C12.9072 23.571 12.651 23.7023 12.4215 23.9183C11.6548 24.6108 10.6498 25.3082 9.70641 25.8312C9.23469 26.0927 8.78692 26.3058 8.39982 26.4522C8.00138 26.6029 7.70868 26.6667 7.53239 26.6667C7.44104 26.6667 7.3942 26.6447 7.37299 26.6306C7.35235 26.6169 7.33417 26.5965 7.32084 26.5608C7.29177 26.4831 7.28456 26.3084 7.42248 26.0838L7.42324 26.0826C7.49948 25.9576 7.60691 25.7913 7.73348 25.5955C8.14585 24.9574 8.76136 24.0049 9.16323 23.1407L9.17002 23.1261L9.17586 23.1111C9.2437 22.9367 9.27391 22.7361 9.22234 22.5302C9.17005 22.3214 9.04636 22.1579 8.89576 22.0396L8.88408 22.0304L8.87187 22.022C6.12693 20.1174 4.5 17.0184 4.5 13.5411C4.5 7.95985 8.82629 3.5 14.193 3.5C19.5602 3.5 23.8947 7.96042 23.8947 13.5411C23.8947 19.3528 19.5976 23.5827 13.5243 23.5936L13.5252 24.0936V23.5936C13.4617 23.5936 13.389 23.5864 13.2728 23.5749L13.258 23.5734Z" fill="#DC143C" stroke="#FFD8E0"/>
</svg>
