<svg width="32" height="32" viewBox="0 0 32 32" fill="none" xmlns="http://www.w3.org/2000/svg">
<path d="M17.4616 14.4284C21.7099 14.4284 25.1539 11.8701 25.1539 8.71422C25.1539 5.55834 21.7099 3 17.4616 3C13.2132 3 9.76929 5.55834 9.76929 8.71422C9.76929 11.8701 13.2132 14.4284 17.4616 14.4284Z" fill="white"/>
<path d="M27.0156 17.7062C25.6993 16.6976 23.9129 16.0837 22.0073 15.9852C18.3013 15.8148 14.5843 15.8148 10.8783 15.9852C9.00172 16.0845 7.24377 16.691 5.94914 17.6856C4.67778 18.6626 3.97883 19.9618 4.00049 21.3079C4.00049 25.5151 10.6749 27.8454 16.6226 27.9833H17.052C22.8548 28.2215 28.9995 25.9236 28.9995 21.8157V21.3851C29.0207 20.0174 28.3089 18.6977 27.0156 17.7062Z" fill="white"/>
</svg>
