<svg width="17" height="16" viewBox="0 0 17 16" fill="none" xmlns="http://www.w3.org/2000/svg">
<path d="M12.285 5.13807C12.5559 4.87772 12.5559 4.45561 12.285 4.19526C12.0141 3.93491 11.5748 3.93491 11.3038 4.19526L4.85656 10.3905L1.87821 7.5286C1.60727 7.26825 1.16799 7.26825 0.897053 7.5286C0.626113 7.78894 0.626113 8.21106 0.897053 8.4714L4.36598 11.8047C4.63692 12.0651 5.0762 12.0651 5.34714 11.8047L12.285 5.13807Z" fill="#E94057"/>
<path d="M15.7539 5.13807C16.0249 4.87772 16.0249 4.45561 15.7539 4.19526C15.483 3.93491 15.0437 3.93491 14.7728 4.19526L8.32221 10.3937C8.04988 10.1862 7.65296 10.2034 7.40129 10.4453C7.13035 10.7056 7.13035 11.1277 7.40129 11.3881L7.83491 11.8047C8.10584 12.0651 8.54513 12.0651 8.81607 11.8047L15.7539 5.13807Z" fill="#E94057"/>
<path d="M5.78076 7.94526L5.34714 7.5286C5.0762 7.26825 4.63692 7.26825 4.36598 7.5286C4.09504 7.78894 4.09504 8.21106 4.36598 8.4714L4.79959 8.88807C5.07053 9.14842 5.50982 9.14842 5.78076 8.88807C6.0517 8.62772 6.0517 8.20561 5.78076 7.94526Z" fill="#E94057"/>
</svg>
