<svg width="150" height="150" viewBox="0 0 150 150" fill="none" xmlns="http://www.w3.org/2000/svg">
<path d="M144.72 74.9987C147.037 72.301 148.66 69.0789 149.449 65.6117C150.239 62.1447 150.17 58.5373 149.25 55.1027C148.329 51.668 146.585 48.5098 144.168 45.902C141.75 43.2942 138.733 41.3156 135.378 40.1377C136.036 36.6431 135.83 33.0408 134.78 29.6434C133.73 26.246 131.867 23.1561 129.352 20.6418C126.838 18.1275 123.748 16.2647 120.35 15.2151C116.953 14.1655 113.35 13.9607 109.856 14.6186C108.679 11.2627 106.701 8.24483 104.093 5.82697C101.485 3.4091 98.3263 1.66433 94.8912 0.74413C91.4561 -0.17607 87.8482 -0.24388 84.3809 0.546587C80.9136 1.33705 77.6917 2.96191 74.9949 5.28007C72.2972 2.9635 69.0751 1.34011 65.608 0.550738C62.1409 -0.238636 58.5335 -0.170158 55.0988 0.75023C51.6642 1.67062 48.506 3.41512 45.8982 5.8324C43.2904 8.24968 41.3118 11.2667 40.1339 14.6218C36.6395 13.965 33.0376 14.1707 29.6406 15.2211C26.2437 16.2714 23.1543 18.1346 20.6404 20.6492C18.1265 23.1637 16.264 26.2536 15.2146 29.6508C14.1651 33.048 13.9603 36.65 14.618 40.1442C11.2629 41.3221 8.24586 43.3007 5.82858 45.9085C3.4113 48.5163 1.66679 51.6745 0.746402 55.1092C-0.173987 58.5438 -0.242475 62.1512 0.5469 65.6183C1.33627 69.0854 2.95969 72.3075 5.27626 75.0052C2.95899 77.7027 1.33507 80.9251 0.545471 84.3926C-0.244128 87.86 -0.17558 91.4678 0.745211 94.9028C1.666 98.3377 3.41119 101.496 5.82929 104.104C8.2474 106.711 11.2654 108.689 14.6213 109.866C13.963 113.36 14.1676 116.963 15.2172 120.36C16.2667 123.757 18.1297 126.847 20.6442 129.362C23.1587 131.876 26.2488 133.738 29.6464 134.787C33.0439 135.837 36.6461 136.041 40.1404 135.382C41.3183 138.737 43.2969 141.754 45.9047 144.171C48.5125 146.589 51.6707 148.333 55.1053 149.254C58.54 150.174 62.1473 150.242 65.6144 149.453C69.0815 148.664 72.3037 147.04 75.0014 144.724C77.699 147.041 80.9213 148.665 84.3888 149.455C87.8563 150.244 91.464 150.176 94.8989 149.255C98.3339 148.334 101.492 146.589 104.1 144.171C106.707 141.753 108.685 138.735 109.862 135.379C113.357 136.037 116.959 135.832 120.357 134.783C123.754 133.733 126.844 131.87 129.358 129.356C131.873 126.841 133.736 123.751 134.785 120.354C135.835 116.956 136.039 113.354 135.381 109.86C138.737 108.682 141.754 106.703 144.172 104.096C146.589 101.488 148.333 98.3292 149.253 94.8944C150.174 91.4595 150.242 87.852 149.452 84.3849C148.662 80.9178 147.037 77.6958 144.72 74.9987Z" fill="black"/>
<path d="M61.5349 103.629L40.6931 82.7997C39.9021 82.0075 39.4578 80.9337 39.4578 79.8142C39.4578 78.6947 39.9021 77.6209 40.6931 76.8287L43.2252 74.2933C44.0174 73.5024 45.0912 73.0581 46.2107 73.0581C47.3302 73.0581 48.404 73.5024 49.1962 74.2933L64.3465 89.4339L100.027 51.5175C100.794 50.7029 101.854 50.2262 102.973 50.1921C104.092 50.158 105.178 50.5692 105.994 51.3355L108.595 53.7896C109.41 54.5575 109.888 55.6178 109.922 56.7374C109.956 57.8571 109.544 58.9445 108.777 59.7606L67.6067 103.534C67.2191 103.947 66.7523 104.278 66.2342 104.507C65.7161 104.737 65.1572 104.859 64.5908 104.868C64.0243 104.877 63.4619 104.772 62.9369 104.559C62.4119 104.346 61.9351 104.029 61.5349 103.629Z" fill="white"/>
</svg>
