<svg width="50" height="38" viewBox="0 0 50 38" fill="none" xmlns="http://www.w3.org/2000/svg">
<path d="M6.65184 37.8608H43.328C47.6951 37.8608 50 35.6671 50 31.4756V10.9097C50 6.71818 47.6951 4.52449 43.328 4.52449H37.9499C36.3728 4.52449 35.8674 4.26987 34.8767 3.27095L33.2794 1.6061C32.2281 0.528837 31.1565 0 29.0942 0H20.7845C18.7222 0 17.6506 0.528837 16.5993 1.6061L15.002 3.27095C14.0315 4.25028 13.5059 4.52449 11.9288 4.52449H6.65184C2.28468 4.52449 0 6.71818 0 10.9097V31.4756C0 35.6671 2.28468 37.8608 6.65184 37.8608ZM24.9899 31.7106C18.9446 31.7106 14.0922 27.0098 14.0922 21.1339C14.0922 15.2383 18.9446 10.5376 24.9899 10.5376C31.0554 10.5376 35.9078 15.2383 35.9078 21.1339C35.9078 27.0098 31.0554 31.7106 24.9899 31.7106ZM37.2018 13.926C37.2018 12.5354 38.4351 11.321 39.9111 11.321C41.3668 11.321 42.6001 12.5354 42.6001 13.926C42.6001 15.3754 41.3668 16.5115 39.9111 16.531C38.4351 16.531 37.2018 15.395 37.2018 13.926ZM24.9899 28.1654C29.0134 28.1654 32.2483 25.0316 32.2483 21.1339C32.2483 17.2166 29.0134 14.0827 24.9899 14.0827C20.9867 14.0827 17.7517 17.2166 17.7517 21.1339C17.7517 25.0316 21.0069 28.1654 24.9899 28.1654Z" fill="#DC143C"/>
</svg>
