<svg width="160" height="160" viewBox="0 0 160 160" fill="none" xmlns="http://www.w3.org/2000/svg">
<path d="M80 148C117.555 148 148 117.257 148 79.3337C148 41.4101 117.555 10.667 80 10.667C42.4446 10.667 12 41.4101 12 79.3337C12 117.257 42.4446 148 80 148Z" fill="#E94057"/>
<path d="M21.761 117.019C25.1495 117.019 27.8963 114.245 27.8963 110.823C27.8963 107.402 25.1495 104.628 21.761 104.628C18.3726 104.628 15.6257 107.402 15.6257 110.823C15.6257 114.245 18.3726 117.019 21.761 117.019Z" fill="#8BACFF"/>
<path d="M19.4163 144.521C21.5097 144.521 23.2068 142.807 23.2068 140.693C23.2068 138.579 21.5097 136.865 19.4163 136.865C17.3228 136.865 15.6257 138.579 15.6257 140.693C15.6257 142.807 17.3228 144.521 19.4163 144.521Z" fill="#E94057"/>
<path d="M131.305 49.7836C136.787 49.7836 141.231 45.2961 141.231 39.7604C141.231 34.2248 136.787 29.7373 131.305 29.7373C125.823 29.7373 121.379 34.2248 121.379 39.7604C121.379 45.2961 125.823 49.7836 131.305 49.7836Z" fill="#8BACFF"/>
<path d="M143.896 17.4944C145.284 17.4944 146.409 16.3582 146.409 14.9567C146.409 13.5551 145.284 12.4189 143.896 12.4189C142.508 12.4189 141.383 13.5551 141.383 14.9567C141.383 16.3582 142.508 17.4944 143.896 17.4944Z" fill="#E94057"/>
<path d="M55.875 81.976L78.0129 117.391C78.0129 117.391 112.991 42.7504 111.22 44.7677C109.449 46.5609 78.0129 94.9765 78.0129 94.9765L55.875 81.976Z" fill="#070212"/>
<path d="M55.8746 81.9755L44.8057 78.165L66.5008 112.684L78.0126 117.391L55.8746 81.9755Z" fill="#070212"/>
<path d="M111.219 44.5434L100.15 40.957L68.2715 89.1485L78.0122 94.9764L111.219 44.5434Z" fill="#070212"/>
</svg>
