<svg width="195" height="159" viewBox="0 0 195 159" fill="none" xmlns="http://www.w3.org/2000/svg">
<path d="M0 99.5877C0 115.495 8.27011 123.708 24.2935 123.708H27.9116V71.4723C27.9116 49.5719 41.0552 36.476 63.0596 36.476H73.3234C75.0956 36.476 75.5386 36.2541 76.7939 34.9963L82.1842 29.9651C88.313 24.1201 94.8848 21.3825 103.376 21.3825H130.254C138.894 21.3825 145.687 24.1201 151.668 30.1131L155.286 33.6645C155.803 34.1824 156.394 34.8483 156.837 35.0703V24.1201C156.837 8.28664 148.493 0 132.543 0H24.2935C8.27011 0 0 8.28664 0 24.1201V99.5877ZM63.0596 159H170.571C186.594 159 194.938 150.713 194.938 134.88V71.4723C194.938 55.5649 186.594 47.3523 170.571 47.3523H160.381C154.843 47.3523 152.997 46.6864 149.748 43.3569L144.136 37.8078C140.149 33.8865 136.235 32.2587 130.254 32.2587H103.376C97.4692 32.2587 93.6295 33.9604 89.5683 37.8078L83.661 43.3569C80.3382 46.4644 78.8614 47.3523 73.3234 47.3523H63.0596C47.0363 47.3523 38.7661 55.5649 38.7661 71.4723V134.88C38.7661 150.713 47.0363 159 63.0596 159ZM116.52 135.546C96.9523 135.546 81.1505 119.712 81.1505 100.032C81.1505 80.4988 96.9523 64.5914 116.52 64.5914C136.014 64.5914 151.889 80.4988 151.889 100.032C151.889 119.712 136.014 135.546 116.52 135.546ZM161.784 83.3104C157.058 83.3104 153.292 79.463 153.292 74.8018C153.292 70.0666 157.058 66.2192 161.784 66.2192C166.436 66.2192 170.35 70.0666 170.35 74.8018C170.35 79.463 166.436 83.3104 161.784 83.3104ZM116.52 122.524C128.851 122.524 138.894 112.462 138.894 100.032C138.894 87.6757 128.851 77.6133 116.52 77.6133C104.189 77.6133 94.1464 87.6757 94.1464 100.032C94.1464 112.462 104.189 122.524 116.52 122.524Z" fill="#E94057"/>
</svg>
