<svg width="25" height="25" viewBox="0 0 25 25" fill="none" xmlns="http://www.w3.org/2000/svg">
<path d="M21.6461 6.18362C18.223 5.89564 14.7819 5.7722 11.3537 5.8231C9.32133 5.85328 7.29053 5.98609 5.26125 6.22155L3.17039 6.45793" stroke="#E94057" stroke-width="1.5" stroke-linecap="round" stroke-linejoin="round"/>
<path d="M8.80037 5.33816L9.00622 3.99018C9.15597 3.01264 9.26832 2.28205 11.003 2.25629L13.6922 2.21636C15.4269 2.19061 15.5718 2.95845 15.7397 3.90048L15.9854 5.23148" stroke="#E94057" stroke-width="1.5" stroke-linecap="round" stroke-linejoin="round"/>
<path d="M19.4874 9.46015L18.9737 19.8062C18.8847 21.4193 18.8109 22.673 15.9472 22.7155L9.35754 22.8133C6.49381 22.8558 6.38284 21.605 6.24601 19.9951L5.42537 9.66893" stroke="#E94057" stroke-width="1.5" stroke-linecap="round" stroke-linejoin="round"/>
<path d="M10.8544 17.1444L14.2724 17.0937" stroke="#E94057" stroke-width="1.5" stroke-linecap="round" stroke-linejoin="round"/>
<path d="M9.94154 13.0513L15.0737 12.9751" stroke="#E94057" stroke-width="1.5" stroke-linecap="round" stroke-linejoin="round"/>
</svg>
