<svg width="25" height="27" viewBox="0 0 25 27" fill="none" xmlns="http://www.w3.org/2000/svg">
<path d="M2.14914 21.6094H22.8508C24.1843 21.6094 24.9999 20.9059 24.9999 19.8505C24.9999 18.5188 23.7571 17.3755 22.5919 16.295C21.6727 15.4281 21.4655 13.619 21.2972 11.948C21.0901 7.34972 19.7048 4.10831 16.3516 2.93989C15.8208 1.28149 14.4096 0 12.4935 0C10.5903 0 9.17916 1.28149 8.6354 2.93989C5.29517 4.10831 3.89694 7.34972 3.70274 11.948C3.53443 13.619 3.31434 15.4281 2.40807 16.295C1.24288 17.3755 0 18.5188 0 19.8505C0 20.9059 0.815638 21.6094 2.14914 21.6094ZM12.4935 26.7857C14.798 26.7857 16.4681 25.1901 16.6364 23.3683H8.36352C8.53183 25.1901 10.2019 26.7857 12.4935 26.7857Z" fill="#E94057"/>
</svg>
