<svg width="27" height="27" viewBox="0 0 27 27" fill="none" xmlns="http://www.w3.org/2000/svg">
<path d="M12.3453 26.9999H14.6672C15.4285 26.9999 15.9995 26.5431 16.1644 25.7945L16.7988 23.1174C17.2302 22.9651 17.6362 22.8002 18.0168 22.6226L20.3641 24.069C20.9858 24.4623 21.7344 24.3989 22.2546 23.8787L23.8913 22.2419C24.4115 21.7217 24.4877 20.9477 24.069 20.3134L22.6352 17.9915C22.8129 17.6108 22.9778 17.2048 23.1047 16.8115L25.8072 16.1771C26.5558 16.0121 26.9999 15.4412 26.9999 14.6799V12.3961C26.9999 11.6475 26.5558 11.0639 25.8072 10.8989L23.1301 10.2518C22.9905 9.80776 22.8129 9.41443 22.6606 9.07186L24.0944 6.69922C24.5004 6.05214 24.4496 5.32892 23.904 4.79603L22.2546 3.15929C21.7217 2.67715 21.0493 2.58833 20.4022 2.9436L18.0168 4.41539C17.6489 4.23776 17.2429 4.07282 16.8115 3.92057L16.1644 1.20535C15.9995 0.456765 15.4285 0 14.6672 0H12.3453C11.5714 0 11.0004 0.456765 10.8355 1.20535L10.2011 3.90788C9.76969 4.04745 9.35099 4.21239 8.97036 4.40271L6.59772 2.9436C5.95063 2.58833 5.29086 2.66446 4.74528 3.15929L3.09585 4.79603C2.55027 5.32892 2.49952 6.05214 2.90553 6.69922L4.33927 9.07186C4.18701 9.41443 4.02207 9.80776 3.86981 10.2518L1.19266 10.8989C0.444077 11.0639 0 11.6475 0 12.3961V14.6799C0 15.4412 0.444077 16.0121 1.19266 16.1771L3.89519 16.8115C4.02207 17.2048 4.18701 17.6108 4.36464 17.9915L2.93091 20.3134C2.51221 20.9477 2.58833 21.7217 3.12123 22.2419L4.74528 23.8787C5.26548 24.3989 6.01407 24.4623 6.64847 24.069L8.98304 22.6226C9.36368 22.8002 9.76969 22.9651 10.2011 23.1174L10.8355 25.7945C11.0004 26.5431 11.5714 26.9999 12.3453 26.9999ZM13.4999 17.9407C11.0639 17.9407 9.07186 15.936 9.07186 13.4873C9.07186 11.0639 11.0639 9.07186 13.4999 9.07186C15.9487 9.07186 17.9407 11.0639 17.9407 13.4873C17.9407 15.936 15.9487 17.9407 13.4999 17.9407Z" fill="#E94057"/>
</svg>
