<svg width="23" height="28" viewBox="0 0 23 28" fill="none" xmlns="http://www.w3.org/2000/svg">
<path d="M11.2 0C5.0288 0 0 5.04 0 11.2448C0 17.1248 9.3408 26.6112 10.4048 27.6752C10.6288 27.888 10.9088 28 11.2 28C11.4912 28 11.7712 27.888 11.9952 27.6752C13.0592 26.6112 22.4 17.1248 22.4 11.2448C22.4 5.04 17.3712 0 11.2 0Z" fill="#DC143C"/>
<path d="M15.68 11.2446C15.68 13.7086 13.6752 15.7246 11.2 15.7246C8.72482 15.7246 6.72002 13.7086 6.72002 11.2446C6.72002 8.76945 8.72482 6.76465 11.2 6.76465C13.6752 6.76465 15.68 8.76945 15.68 11.2446Z" fill="#FFD8E0"/>
</svg>
