<svg width="20" height="17" viewBox="0 0 20 17" fill="none" xmlns="http://www.w3.org/2000/svg">
<path d="M9.10258 17C9.80559 17 10.3351 16.4796 10.3351 15.7675V12.4989H10.5634C13.8958 12.4989 15.9318 13.4758 17.3652 16.1418C17.7304 16.8083 18.1686 16.9635 18.6525 16.9635C19.2916 16.9635 19.7846 16.3609 19.7846 15.2014C19.7846 8.57304 16.8539 4.52846 10.5634 4.52846H10.3351V1.2782C10.3351 0.566058 9.80559 0 9.08432 0C8.60043 0 8.25349 0.200859 7.72395 0.693878L0.493018 7.43179C0.13695 7.7696 0 8.15306 0 8.5C0 8.83781 0.13695 9.2304 0.493018 9.56821L7.72395 16.3518C8.20784 16.8083 8.60043 17 9.10258 17Z" fill="#E94057"/>
</svg>
