<svg width="9" height="8" viewBox="0 0 9 8" fill="none" xmlns="http://www.w3.org/2000/svg">
<path d="M0 2.66809C0 4.49093 1.59634 6.29242 4.07757 7.82924C4.21542 7.91462 4.38439 8 4.5 8C4.61561 8 4.78458 7.91462 4.92243 7.82924C7.4081 6.29242 9 4.49093 9 2.66809C9 1.09285 7.86611 0 6.41206 0C5.56275 0 4.9002 0.371398 4.5 0.934899C4.1087 0.375667 3.4417 0 2.59239 0C1.13389 0 0 1.09285 0 2.66809ZM0.916008 2.66382C0.916008 1.58805 1.65415 0.858058 2.64575 0.858058C3.44615 0.858058 3.89526 1.32337 4.1754 1.72892C4.2999 1.90395 4.38439 1.95944 4.5 1.95944C4.62006 1.95944 4.69565 1.89968 4.8246 1.72892C5.12698 1.33191 5.5583 0.858058 6.35425 0.858058C7.3503 0.858058 8.08844 1.58805 8.08844 2.66382C8.08844 4.16649 6.46097 5.83138 4.58449 7.02668C4.54447 7.05229 4.51779 7.06937 4.5 7.06937C4.48221 7.06937 4.45553 7.05229 4.41996 7.02668C2.54348 5.83138 0.916008 4.16649 0.916008 2.66382Z" fill="#E94057"/>
</svg>
