<svg width="32" height="32" viewBox="0 0 32 32" fill="none" xmlns="http://www.w3.org/2000/svg">
<path d="M17.4616 14.4284C21.7099 14.4284 25.1539 11.8701 25.1539 8.71422C25.1539 5.55834 21.7099 3 17.4616 3C13.2132 3 9.76929 5.55834 9.76929 8.71422C9.76929 11.8701 13.2132 14.4284 17.4616 14.4284Z" fill="#DC143C"/>
<path d="M27.0156 17.706C25.6993 16.6973 23.9129 16.0834 22.0073 15.9849C18.3013 15.8146 14.5843 15.8146 10.8783 15.9849C9.00172 16.0843 7.24377 16.6908 5.94914 17.6854C4.67778 18.6623 3.97883 19.9616 4.00049 21.3076C4.00049 25.5149 10.6749 27.8451 16.6226 27.983H17.052C22.8548 28.2213 28.9995 25.9234 28.9995 21.8155V21.3848C29.0207 20.0172 28.3089 18.6974 27.0156 17.706Z" fill="#DC143C"/>
</svg>
