<svg width="17" height="17" viewBox="0 0 17 17" fill="none" xmlns="http://www.w3.org/2000/svg">
<path d="M8.49589 17C13.1547 17 17 13.1528 17 8.5C17 3.8472 13.1464 0 8.48768 0C3.83712 0 0 3.8472 0 8.5C0 13.1528 3.84534 17 8.49589 17ZM8.49589 15.3066C4.7245 15.3066 1.70904 12.2732 1.70904 8.5C1.70904 4.72679 4.7245 1.70164 8.48768 1.70164C12.2591 1.70164 15.291 4.72679 15.2992 8.5C15.3074 12.2732 12.2673 15.3066 8.49589 15.3066ZM4.35476 9.53578H8.48768C8.86564 9.53578 9.15321 9.24807 9.15321 8.87814V3.50193C9.15321 3.13201 8.86564 2.84429 8.48768 2.84429C8.12615 2.84429 7.83857 3.13201 7.83857 3.50193V8.2205H4.35476C3.98502 8.2205 3.69744 8.50822 3.69744 8.87814C3.69744 9.24807 3.98502 9.53578 4.35476 9.53578Z" fill="#656E7B"/>
</svg>
