<svg width="31" height="29" viewBox="0 0 31 29" fill="none" xmlns="http://www.w3.org/2000/svg">
<path d="M30 10.3383C30 16.7183 24.6789 23.0235 16.4081 28.4023C15.9486 28.7012 15.3854 29 15 29C14.6146 29 14.0514 28.7012 13.5919 28.4023C5.30632 23.0235 0 16.7183 0 10.3383C0 4.82497 3.77964 1 8.62648 1C11.4575 1 13.666 2.29989 15 4.27215C16.3043 2.31483 18.5277 1 21.3587 1C26.2204 1 30 4.82497 30 10.3383ZM26.9466 10.3234C26.9466 6.55816 24.4862 4.0032 21.1808 4.0032C18.5128 4.0032 17.0158 5.6318 16.082 7.05123C15.667 7.66382 15.3854 7.85806 15 7.85806C14.5998 7.85806 14.3478 7.64888 13.918 7.05123C12.9101 5.66169 11.4723 4.0032 8.81917 4.0032C5.49901 4.0032 3.03854 6.55816 3.03854 10.3234C3.03854 15.5827 8.46344 21.4098 14.7184 25.5934C14.8518 25.683 14.9407 25.7428 15 25.7428C15.0593 25.7428 15.1482 25.683 15.2668 25.5934C21.5217 21.4098 26.9466 15.5827 26.9466 10.3234Z" fill="#656E7B"/>
<path d="M1.62499 9.4998C11 -6.00041 15.5 7.99951 15.5 7.99951L15 25.9995L9.22537 24.0341C9.22537 24.0341 -1.68991 14.9805 1.62499 9.4998Z" fill="#656E7B"/>
<path d="M28.875 9.30068C19.5 -6.19953 15 7.80039 15 7.80039V26L21.2746 23.835C21.2746 23.835 32.1899 14.7814 28.875 9.30068Z" fill="#656E7B"/>
<circle cx="28" cy="3" r="3" fill="#E94057"/>
</svg>
