<svg width="30" height="36" viewBox="0 0 30 36" fill="none" xmlns="http://www.w3.org/2000/svg">
<path d="M15 0C6.735 0 0 6.435 0 14.3572C0 21.8647 12.51 33.9768 13.935 35.3353C14.235 35.607 14.61 35.75 15 35.75C15.39 35.75 15.765 35.607 16.065 35.3353C17.49 33.9768 30 21.8647 30 14.3572C30 6.435 23.265 0 15 0Z" fill="#DC143C"/>
<path d="M21 14.3567C21 17.5027 18.315 20.0767 15 20.0767C11.685 20.0767 9.00003 17.5027 9.00003 14.3567C9.00003 11.1964 11.685 8.63672 15 8.63672C18.315 8.63672 21 11.1964 21 14.3567Z" fill="#FFD8E0"/>
</svg>
