<svg width="43" height="61" viewBox="0 0 43 61" fill="none" xmlns="http://www.w3.org/2000/svg">
<path d="M21.1932 39.446C26.8244 39.446 30.9853 35.2295 30.9853 29.0713V10.3747C30.9853 4.21645 26.8244 0 21.1932 0C15.562 0 11.4011 4.21645 11.4011 10.3747V29.0713C11.4011 35.2295 15.562 39.446 21.1932 39.446ZM0 29.7093C0 41.1936 7.62844 49.0439 18.6134 50.0981V55.7292H8.4329C6.96269 55.7292 5.74214 56.8943 5.74214 58.3645C5.74214 59.807 6.96269 60.9998 8.4329 60.9998H33.9535C35.4237 60.9998 36.6443 59.807 36.6443 58.3645C36.6443 56.8943 35.4237 55.7292 33.9535 55.7292H23.773V50.0981C34.758 49.0439 42.3864 41.1936 42.3864 29.7093V24.2446C42.3864 22.7744 41.2213 21.637 39.7511 21.637C38.2809 21.637 37.0604 22.7744 37.0604 24.2446V29.5151C37.0604 38.9744 30.6525 45.1881 21.1932 45.1881C11.7339 45.1881 5.32604 38.9744 5.32604 29.5151V24.2446C5.32604 22.7744 4.13323 21.637 2.66302 21.637C1.19281 21.637 0 22.7744 0 24.2446V29.7093Z" fill="#E94057"/>
</svg>
