<svg width="19" height="19" viewBox="0 0 19 19" fill="none" xmlns="http://www.w3.org/2000/svg">
<path fill-rule="evenodd" clip-rule="evenodd" d="M5.93748 4.35413C5.93748 2.38661 7.53246 0.791626 9.49998 0.791626C11.4675 0.791626 13.0625 2.38661 13.0625 4.35413V9.49996C13.0625 11.4675 11.4675 13.0625 9.49998 13.0625C7.53246 13.0625 5.93748 11.4675 5.93748 9.49996V4.35413ZM9.49998 2.37496C8.40691 2.37496 7.52081 3.26106 7.52081 4.35413V9.49996C7.52081 10.593 8.40691 11.4791 9.49998 11.4791C10.593 11.4791 11.4791 10.593 11.4791 9.49996V4.35413C11.4791 3.26106 10.593 2.37496 9.49998 2.37496ZM3.56248 8.31246C3.99971 8.31246 4.35415 8.6669 4.35415 9.10413C4.35415 11.9461 6.658 14.25 9.49998 14.25C12.342 14.25 14.6458 11.9461 14.6458 9.10413C14.6458 8.6669 15.0003 8.31246 15.4375 8.31246C15.8747 8.31246 16.2291 8.6669 16.2291 9.10413C16.2291 12.5527 13.635 15.3954 10.2916 15.7872V17.4166C10.2916 17.8539 9.9372 18.2083 9.49998 18.2083C9.06275 18.2083 8.70831 17.8539 8.70831 17.4166V15.7872C5.36496 15.3954 2.77081 12.5527 2.77081 9.10413C2.77081 8.6669 3.12525 8.31246 3.56248 8.31246Z" fill="#E94057"/>
</svg>
