<svg width="279" height="266" viewBox="0 0 279 266" fill="none" xmlns="http://www.w3.org/2000/svg">
<g filter="url(#filter0_d_821_9134)">
<path d="M150.338 85.1099L150.339 85.1107L153.596 95.2974C154.214 97.2302 155.608 98.8517 157.466 99.8078C159.324 100.764 161.493 100.977 163.497 100.405C165.501 99.8342 167.183 98.5237 168.17 96.7574C169.157 94.9904 169.368 92.9115 168.75 90.9787L165.492 80.792C163.098 73.3067 158.439 66.6519 152.107 61.6687C145.774 56.6856 138.053 53.5983 129.921 52.794C121.789 51.9898 113.609 53.5045 106.414 57.1461C99.2202 60.7878 93.3325 66.3939 89.4975 73.2579C85.6625 80.1221 84.0526 87.9361 84.8744 95.7119C85.6963 103.488 88.9129 110.874 94.1163 116.935C99.3197 122.996 106.275 127.459 114.1 129.762C121.925 132.065 130.27 132.105 138.081 129.879C138.899 129.646 139.781 129.734 140.531 130.12C141.28 130.506 141.836 131.156 142.081 131.924C142.327 132.693 142.245 133.525 141.847 134.237C141.449 134.95 140.767 135.485 139.948 135.718C127.838 139.169 114.754 137.874 103.576 132.122C92.3991 126.371 84.0433 116.635 80.3415 105.059C76.6397 93.4839 77.893 81.0096 83.8316 70.3803C89.7707 59.7503 99.9094 51.8368 112.02 48.3854C124.13 44.9341 137.214 46.2293 148.391 51.9811C159.568 57.7325 167.924 67.4682 171.626 79.0438L174.884 89.2305L174.884 89.2313C175.856 92.2552 175.705 95.5017 174.451 98.4191C173.198 101.337 170.919 103.746 168 105.233C165.081 106.719 161.705 107.19 158.449 106.566C155.192 105.942 152.259 104.262 150.145 101.817L149.626 101.217L149.304 101.918C146.907 107.127 142.661 111.354 137.305 113.857C131.948 116.36 125.827 116.978 120.013 115.603C114.2 114.228 109.068 110.949 105.511 106.345C101.954 101.742 100.197 96.1035 100.547 90.4158C100.897 84.7277 103.332 79.3491 107.431 75.2235C111.531 71.0977 117.032 68.4897 122.971 67.8581C128.911 67.2266 134.906 68.6119 139.908 71.7671C144.91 74.922 148.601 79.6457 150.338 85.1099ZM120.51 109.451C124.118 110.513 127.965 110.532 131.565 109.506C136.393 108.13 140.438 104.975 142.81 100.729C145.183 96.4829 145.686 91.4934 144.204 86.8589C143.099 83.4031 140.949 80.3315 138.026 78.032C135.104 75.7327 131.543 74.3091 127.794 73.9383C124.045 73.5676 120.274 74.2659 116.958 75.9445C113.641 77.6232 110.926 80.208 109.157 83.3742C107.388 86.5406 106.645 90.1466 107.024 93.7362C107.403 97.326 108.888 100.736 111.29 103.533C113.692 106.331 116.901 108.389 120.51 109.451Z" fill="#E94057" stroke="#E94057"/>
<path d="M198.164 65.182L198.248 65.4445L198.517 65.5208L221.493 72.0425C226.301 73.7375 230.636 76.4759 234.154 80.039C237.676 83.6058 240.283 87.901 241.768 92.583L241.768 92.5841L267.774 173.905C267.774 173.906 267.775 173.906 267.775 173.907C270.264 181.88 269.373 190.448 265.29 197.757C261.206 205.067 254.257 210.528 245.944 212.955C245.944 212.956 245.943 212.956 245.942 212.956L97.1097 255.373C88.7464 257.747 79.7173 256.86 71.991 252.91C64.266 248.961 58.4698 242.271 55.8601 234.301L29.8539 152.979L29.8536 152.978C28.3635 148.346 28.0118 143.456 28.8268 138.689C29.6409 133.927 31.5971 129.415 34.5445 125.506L50.0173 107.842L50.1959 107.638L50.1121 107.376L35.67 62.2149C34.8481 59.6449 35.1254 56.8727 36.4468 54.5076C37.7686 52.1418 40.027 50.3776 42.7276 49.608L170.453 13.2068C173.154 12.4371 176.069 12.7268 178.557 14.0069C181.044 15.2866 182.9 17.4509 183.722 20.0209L198.164 65.182ZM208.478 96.8598L208.355 97.0505L208.425 97.2702L211.325 106.336L211.655 107.368L212.233 106.473L227.41 82.9924L227.647 82.6255L227.298 82.3409C225.353 80.7554 223.167 79.4643 220.816 78.5129L220.427 78.3554L220.207 78.697L208.478 96.8598ZM60.0886 139.15L39.8522 130.252L39.5586 129.334L38.9765 130.191C37.6011 132.215 36.5503 134.426 35.8593 136.751L35.7352 137.169L36.1455 137.352L62.6047 149.152L63.6159 149.603L63.2838 148.564L60.3737 139.464L60.3033 139.244L60.0886 139.15ZM72.5268 246.111L72.9609 246.399L73.232 245.973L115.259 179.828L115.565 179.346L115.026 179.107L108.26 176.107L107.86 175.93L107.633 176.288L66.9237 240.501L66.7364 240.797L66.9637 241.075C68.5442 243.011 70.4199 244.708 72.5268 246.111ZM166.752 150.631L166.76 150.634L179.963 156.208L180.357 156.375L180.581 156.025L207.082 114.571L207.204 114.381L207.134 114.163L177.587 21.7691C177.257 20.7368 176.513 19.8725 175.524 19.3635C174.536 18.855 173.384 18.7424 172.32 19.0454L44.5947 55.4467C43.5315 55.7497 42.6378 56.4453 42.1127 57.3852C41.5872 58.3258 41.474 59.4344 41.8041 60.4667L71.3509 152.86L71.4207 153.079L71.6335 153.174L118.227 173.944L118.625 174.121L118.854 173.767L126.363 162.142L126.363 162.141C130.423 155.836 136.772 151.182 144.215 149.061C151.658 146.94 159.675 147.5 166.752 150.631ZM260.621 191.387L261.102 191.596L261.286 191.122C262.199 188.774 262.678 186.289 262.702 183.778L262.706 183.444L262.391 183.307L190.964 152.312L190.568 152.14L190.342 152.492L186.44 158.569L186.127 159.056L186.675 159.294L260.621 191.387Z" fill="#E94057" stroke="#E94057"/>
</g>
<defs>
<filter id="filter0_d_821_9134" x="27.8942" y="12.2885" width="249.769" height="252.886" filterUnits="userSpaceOnUse" color-interpolation-filters="sRGB">
<feFlood flood-opacity="0" result="BackgroundImageFix"/>
<feColorMatrix in="SourceAlpha" type="matrix" values="0 0 0 0 0 0 0 0 0 0 0 0 0 0 0 0 0 0 127 0" result="hardAlpha"/>
<feOffset dx="4" dy="4"/>
<feGaussianBlur stdDeviation="2"/>
<feComposite in2="hardAlpha" operator="out"/>
<feColorMatrix type="matrix" values="0 0 0 0 0 0 0 0 0 0 0 0 0 0 0 0 0 0 0.35 0"/>
<feBlend mode="normal" in2="BackgroundImageFix" result="effect1_dropShadow_821_9134"/>
<feBlend mode="normal" in="SourceGraphic" in2="effect1_dropShadow_821_9134" result="shape"/>
</filter>
</defs>
</svg>
