<svg width="350" height="279" viewBox="0 0 350 279" fill="none" xmlns="http://www.w3.org/2000/svg">
<rect opacity="0.47" x="64.6871" y="0.5" width="284.813" height="268.815" rx="46.5" fill="#FFD8E0" stroke="#E94057"/>
<g filter="url(#filter0_d_821_9132)">
<path d="M150.338 99.1099L150.339 99.1107L153.596 109.297C154.214 111.23 155.608 112.852 157.466 113.808C159.324 114.764 161.493 114.977 163.497 114.405C165.501 113.834 167.183 112.524 168.17 110.757C169.157 108.99 169.368 106.912 168.75 104.979L165.492 94.792C163.098 87.3067 158.439 80.6519 152.107 75.6687C145.774 70.6856 138.053 67.5983 129.921 66.794C121.789 65.9898 113.609 67.5045 106.414 71.1461C99.2202 74.7878 93.3325 80.3939 89.4975 87.2579C85.6625 94.1221 84.0526 101.936 84.8744 109.712C85.6963 117.488 88.9129 124.874 94.1163 130.935C99.3197 136.996 106.275 141.459 114.1 143.762C121.925 146.065 130.27 146.105 138.081 143.879C138.899 143.646 139.781 143.734 140.531 144.12C141.28 144.506 141.836 145.156 142.081 145.924C142.327 146.693 142.245 147.525 141.847 148.237C141.449 148.95 140.767 149.485 139.948 149.718C127.838 153.169 114.754 151.874 103.576 146.122C92.3991 140.371 84.0433 130.635 80.3415 119.059C76.6397 107.484 77.893 95.0096 83.8316 84.3803C89.7707 73.7503 99.9094 65.8368 112.02 62.3854C124.13 58.9341 137.214 60.2293 148.391 65.9811C159.568 71.7325 167.924 81.4682 171.626 93.0438L174.884 103.231L174.884 103.231C175.856 106.255 175.705 109.502 174.451 112.419C173.198 115.337 170.919 117.746 168 119.233C165.081 120.719 161.705 121.19 158.449 120.566C155.192 119.942 152.259 118.262 150.145 115.817L149.626 115.217L149.304 115.918C146.907 121.127 142.661 125.354 137.305 127.857C131.948 130.36 125.827 130.978 120.013 129.603C114.2 128.228 109.068 124.949 105.511 120.345C101.954 115.742 100.197 110.104 100.547 104.416C100.897 98.7277 103.332 93.3491 107.431 89.2235C111.531 85.0977 117.032 82.4897 122.971 81.8581C128.911 81.2266 134.906 82.6119 139.908 85.7671C144.91 88.922 148.601 93.6457 150.338 99.1099ZM120.51 123.451C124.118 124.513 127.965 124.532 131.565 123.506C136.393 122.13 140.438 118.975 142.81 114.729C145.183 110.483 145.686 105.493 144.204 100.859C143.099 97.4031 140.949 94.3315 138.026 92.032C135.104 89.7327 131.543 88.3091 127.794 87.9383C124.045 87.5676 120.274 88.2659 116.958 89.9445C113.641 91.6232 110.926 94.208 109.157 97.3742C107.388 100.541 106.645 104.147 107.024 107.736C107.403 111.326 108.888 114.736 111.29 117.533C113.692 120.331 116.901 122.389 120.51 123.451Z" fill="#E94057" stroke="#E94057"/>
<path d="M198.164 79.182L198.248 79.4445L198.517 79.5208L221.493 86.0425C226.301 87.7375 230.636 90.4759 234.154 94.039C237.676 97.6058 240.283 101.901 241.768 106.583L241.768 106.584L267.774 187.905C267.774 187.906 267.775 187.906 267.775 187.907C270.264 195.88 269.373 204.448 265.29 211.757C261.206 219.067 254.257 224.528 245.944 226.955C245.944 226.956 245.943 226.956 245.942 226.956L97.1097 269.373C88.7464 271.747 79.7173 270.86 71.991 266.91C64.266 262.961 58.4698 256.271 55.8601 248.301L29.8539 166.979L29.8536 166.978C28.3635 162.346 28.0118 157.456 28.8268 152.689C29.6409 147.927 31.5971 143.415 34.5445 139.506L50.0173 121.842L50.1959 121.638L50.1121 121.376L35.67 76.2149C34.8481 73.6449 35.1254 70.8727 36.4468 68.5076C37.7686 66.1418 40.027 64.3776 42.7276 63.608L170.453 27.2068C173.154 26.4371 176.069 26.7268 178.557 28.0069C181.044 29.2866 182.9 31.4509 183.722 34.0209L198.164 79.182ZM208.478 110.86L208.355 111.05L208.425 111.27L211.325 120.336L211.655 121.368L212.233 120.473L227.41 96.9924L227.647 96.6255L227.298 96.3409C225.353 94.7554 223.167 93.4643 220.816 92.5129L220.427 92.3554L220.207 92.697L208.478 110.86ZM60.0886 153.15L39.8522 144.252L39.5586 143.334L38.9765 144.191C37.6011 146.215 36.5503 148.426 35.8593 150.751L35.7352 151.169L36.1455 151.352L62.6047 163.152L63.6159 163.603L63.2838 162.564L60.3737 153.464L60.3033 153.244L60.0886 153.15ZM72.5268 260.111L72.9609 260.399L73.232 259.973L115.259 193.828L115.565 193.346L115.026 193.107L108.26 190.107L107.86 189.93L107.633 190.288L66.9237 254.501L66.7364 254.797L66.9637 255.075C68.5442 257.011 70.4199 258.708 72.5268 260.111ZM166.752 164.631L166.76 164.634L179.963 170.208L180.357 170.375L180.581 170.025L207.082 128.571L207.204 128.381L207.134 128.163L177.587 35.7691C177.257 34.7368 176.513 33.8725 175.524 33.3635C174.536 32.855 173.384 32.7424 172.32 33.0454L44.5947 69.4467C43.5315 69.7497 42.6378 70.4453 42.1127 71.3852C41.5872 72.3258 41.474 73.4344 41.8041 74.4667L71.3509 166.86L71.4207 167.079L71.6335 167.174L118.227 187.944L118.625 188.121L118.854 187.767L126.363 176.142L126.363 176.141C130.423 169.836 136.772 165.182 144.215 163.061C151.658 160.94 159.675 161.5 166.752 164.631ZM260.621 205.387L261.102 205.596L261.286 205.122C262.199 202.774 262.678 200.289 262.702 197.778L262.706 197.444L262.391 197.307L190.964 166.312L190.568 166.14L190.342 166.492L186.44 172.569L186.127 173.056L186.675 173.294L260.621 205.387Z" fill="#E94057" stroke="#E94057"/>
</g>
<defs>
<filter id="filter0_d_821_9132" x="27.8942" y="26.2885" width="249.769" height="252.886" filterUnits="userSpaceOnUse" color-interpolation-filters="sRGB">
<feFlood flood-opacity="0" result="BackgroundImageFix"/>
<feColorMatrix in="SourceAlpha" type="matrix" values="0 0 0 0 0 0 0 0 0 0 0 0 0 0 0 0 0 0 127 0" result="hardAlpha"/>
<feOffset dx="4" dy="4"/>
<feGaussianBlur stdDeviation="2"/>
<feComposite in2="hardAlpha" operator="out"/>
<feColorMatrix type="matrix" values="0 0 0 0 0 0 0 0 0 0 0 0 0 0 0 0 0 0 0.35 0"/>
<feBlend mode="normal" in2="BackgroundImageFix" result="effect1_dropShadow_821_9132"/>
<feBlend mode="normal" in="SourceGraphic" in2="effect1_dropShadow_821_9132" result="shape"/>
</filter>
</defs>
</svg>
