<svg width="167" height="161" viewBox="0 0 167 161" fill="none" xmlns="http://www.w3.org/2000/svg">
<path d="M118.04 0H48.32C21.6336 0 0 21.6336 0 48.32V112.23C0 138.916 21.6336 160.55 48.32 160.55H118.04C144.726 160.55 166.36 138.916 166.36 112.23V48.32C166.36 21.6336 144.726 0 118.04 0Z" fill="url(#paint0_linear_2225_3710)"/>
<path d="M84.5499 135.41C115.395 135.41 140.4 110.405 140.4 79.56C140.4 48.7149 115.395 23.71 84.5499 23.71C53.7048 23.71 28.7 48.7149 28.7 79.56C28.7 110.405 53.7048 135.41 84.5499 135.41Z" fill="#F1F2F2"/>
<path fill-rule="evenodd" clip-rule="evenodd" d="M86.4901 126.2H84.6001L83.54 82.71H87.55L86.4901 126.2Z" fill="url(#paint1_linear_2225_3710)"/>
<path fill-rule="evenodd" clip-rule="evenodd" d="M90.72 63.6699C96.495 61.9417 101.772 58.8557 106.11 54.6699C109.109 61.1153 110.834 68.0797 111.19 75.1799C111.6 84.6199 107.97 92.1799 99.3199 96.5799C95.5188 98.5389 91.3542 99.6922 87.0869 99.9675C82.8195 100.243 78.5413 99.6342 74.52 98.1799C63.21 94.3799 57.7199 86.4399 57.8199 74.5899C57.9302 69.6308 59.2851 64.7788 61.7599 60.4799C70.6456 65.2224 81.0151 66.3646 90.72 63.6699Z" fill="url(#paint2_linear_2225_3710)"/>
<path d="M97.6899 53.3398C100.739 53.3398 103.21 50.8684 103.21 47.8198C103.21 44.7712 100.739 42.2998 97.6899 42.2998C94.6413 42.2998 92.1699 44.7712 92.1699 47.8198C92.1699 50.8684 94.6413 53.3398 97.6899 53.3398Z" fill="url(#paint3_linear_2225_3710)"/>
<path d="M69.2299 57.1097C72.019 57.1097 74.2799 54.8488 74.2799 52.0598C74.2799 49.2707 72.019 47.0098 69.2299 47.0098C66.4409 47.0098 64.1799 49.2707 64.1799 52.0598C64.1799 54.8488 66.4409 57.1097 69.2299 57.1097Z" fill="url(#paint4_linear_2225_3710)"/>
<defs>
<linearGradient id="paint0_linear_2225_3710" x1="0" y1="80.28" x2="166.37" y2="80.28" gradientUnits="userSpaceOnUse">
<stop stop-color="#9E1F63"/>
<stop offset="0.06" stop-color="#B32E65"/>
<stop offset="0.14" stop-color="#C93D68"/>
<stop offset="0.24" stop-color="#DA496A"/>
<stop offset="0.36" stop-color="#E5526B"/>
<stop offset="0.53" stop-color="#EC576C"/>
<stop offset="1" stop-color="#EE586C"/>
</linearGradient>
<linearGradient id="paint1_linear_2225_3710" x1="83.54" y1="104.46" x2="87.55" y2="104.46" gradientUnits="userSpaceOnUse">
<stop stop-color="#9E1F63"/>
<stop offset="0.06" stop-color="#B32E65"/>
<stop offset="0.14" stop-color="#C93D68"/>
<stop offset="0.24" stop-color="#DA496A"/>
<stop offset="0.36" stop-color="#E5526B"/>
<stop offset="0.53" stop-color="#EC576C"/>
<stop offset="1" stop-color="#EE586C"/>
</linearGradient>
<linearGradient id="paint2_linear_2225_3710" x1="57.8199" y1="77.3699" x2="111.22" y2="77.3699" gradientUnits="userSpaceOnUse">
<stop stop-color="#9E1F63"/>
<stop offset="0.06" stop-color="#B32E65"/>
<stop offset="0.14" stop-color="#C93D68"/>
<stop offset="0.24" stop-color="#DA496A"/>
<stop offset="0.36" stop-color="#E5526B"/>
<stop offset="0.53" stop-color="#EC576C"/>
<stop offset="1" stop-color="#EE586C"/>
</linearGradient>
<linearGradient id="paint3_linear_2225_3710" x1="92.1599" y1="47.8198" x2="103.21" y2="47.8198" gradientUnits="userSpaceOnUse">
<stop stop-color="#9E1F63"/>
<stop offset="0.06" stop-color="#B32E65"/>
<stop offset="0.14" stop-color="#C93D68"/>
<stop offset="0.24" stop-color="#DA496A"/>
<stop offset="0.36" stop-color="#E5526B"/>
<stop offset="0.53" stop-color="#EC576C"/>
<stop offset="1" stop-color="#EE586C"/>
</linearGradient>
<linearGradient id="paint4_linear_2225_3710" x1="64.1799" y1="52.0598" x2="74.2799" y2="52.0598" gradientUnits="userSpaceOnUse">
<stop stop-color="#9E1F63"/>
<stop offset="0.06" stop-color="#B32E65"/>
<stop offset="0.14" stop-color="#C93D68"/>
<stop offset="0.24" stop-color="#DA496A"/>
<stop offset="0.36" stop-color="#E5526B"/>
<stop offset="0.53" stop-color="#EC576C"/>
<stop offset="1" stop-color="#EE586C"/>
</linearGradient>
</defs>
</svg>
