<?xml version="1.0" encoding="UTF-8"?>
<!DOCTYPE svg PUBLIC "-//W3C//DTD SVG 1.1//EN" "http://www.w3.org/Graphics/SVG/1.1/DTD/svg11.dtd">
<svg xmlns="http://www.w3.org/2000/svg" version="1.1" width="512px" height="512px" style="shape-rendering:geometricPrecision; text-rendering:geometricPrecision; image-rendering:optimizeQuality; fill-rule:evenodd; clip-rule:evenodd" xmlns:xlink="http://www.w3.org/1999/xlink">
<g><path style="opacity:0.975" fill="#ff998c" d="M 99.5,37.5 C 99.8276,48.0135 99.4942,58.3468 98.5,68.5C 92.5898,66.9847 86.5898,65.9847 80.5,65.5C 80.7925,74.6701 82.9592,83.3368 87,91.5C 90.2706,88.7843 93.7706,86.451 97.5,84.5C 98.8323,95.4797 99.4989,106.813 99.5,118.5C 99.4999,130.005 99.1665,141.338 98.5,152.5C 85.1018,132.702 74.6018,111.369 67,88.5C 63.028,76.5572 62.6946,64.5572 66,52.5C 68.998,44.8362 74.498,40.0029 82.5,38C 88.1974,36.4921 93.8641,36.3254 99.5,37.5 Z"/></g>
<g><path style="opacity:0.988" fill="#ff928b" d="M 99.5,37.5 C 108.192,38.0899 116.526,40.0899 124.5,43.5C 124.5,92.1667 124.5,140.833 124.5,189.5C 115.088,177.744 106.421,165.41 98.5,152.5C 99.1665,141.338 99.4999,130.005 99.5,118.5C 99.4989,106.813 98.8323,95.4797 97.5,84.5C 102.771,81.5275 108.104,78.5275 113.5,75.5C 108.56,72.8612 103.56,70.5279 98.5,68.5C 99.4942,58.3468 99.8276,48.0135 99.5,37.5 Z"/></g>
<g><path style="opacity:0.968" fill="#fd4585" d="M 411.5,167.5 C 410.855,139.607 411.522,111.941 413.5,84.5C 419.482,88.8085 425.482,93.1418 431.5,97.5C 436.518,87.4411 439.518,76.7744 440.5,65.5C 430.385,65.9828 420.719,68.3162 411.5,72.5C 411.5,61.1667 411.5,49.8333 411.5,38.5C 423.199,35.1056 434.532,35.9389 445.5,41C 453.493,47.2624 457.493,55.5957 457.5,66C 455.722,82.6123 451.222,98.4456 444,113.5C 434.894,132.72 424.06,150.72 411.5,167.5 Z"/></g>
<g><path style="opacity:0.991" fill="#fd4e86" d="M 411.5,38.5 C 411.5,49.8333 411.5,61.1667 411.5,72.5C 408.033,74.0672 404.7,75.9005 401.5,78C 405.687,79.9249 409.687,82.0916 413.5,84.5C 411.522,111.941 410.855,139.607 411.5,167.5C 402.81,181.55 393.143,194.883 382.5,207.5C 382.5,155.167 382.5,102.833 382.5,50.5C 391.527,45.1594 401.194,41.1594 411.5,38.5 Z"/></g>
<g><path style="opacity:0.992" fill="#fe8c8b" d="M 124.5,43.5 C 133.759,46.796 142.425,51.1294 150.5,56.5C 149.501,111.664 149.168,166.997 149.5,222.5C 140.441,212.047 132.107,201.047 124.5,189.5C 124.5,140.833 124.5,92.1667 124.5,43.5 Z"/></g>
<g><path style="opacity:0.994" fill="#fd5486" d="M 382.5,50.5 C 382.5,102.833 382.5,155.167 382.5,207.5C 375.298,218.707 366.965,229.04 357.5,238.5C 357.5,180.5 357.5,122.5 357.5,64.5C 365.017,58.5699 373.35,53.9033 382.5,50.5 Z"/></g>
<g><path style="opacity:0.996" fill="#fe868a" d="M 150.5,56.5 C 155.943,59.3919 161.276,62.5586 166.5,66C 169.587,66.2589 172.587,66.7589 175.5,67.5C 174.837,128.598 174.17,189.598 173.5,250.5C 165.155,241.486 157.155,232.153 149.5,222.5C 149.168,166.997 149.501,111.664 150.5,56.5 Z"/></g>
<g><path style="opacity:0.995" fill="#fe5a86" d="M 357.5,64.5 C 357.5,122.5 357.5,180.5 357.5,238.5C 349.88,248.455 341.546,257.788 332.5,266.5C 332.83,200.096 332.496,133.762 331.5,67.5C 340.31,67.2009 348.976,66.2009 357.5,64.5 Z"/></g>
<g><path style="opacity:0.996" fill="#fe808a" d="M 175.5,67.5 C 185.112,68.2365 194.445,70.2365 203.5,73.5C 203.833,143.335 203.499,213.002 202.5,282.5C 192.123,272.457 182.456,261.79 173.5,250.5C 174.17,189.598 174.837,128.598 175.5,67.5 Z"/></g>
<g><path style="opacity:0.996" fill="#fe6087" d="M 331.5,67.5 C 332.496,133.762 332.83,200.096 332.5,266.5C 324.506,275.827 316.173,284.827 307.5,293.5C 307.667,220.499 307.5,147.499 307,74.5C 306.31,75.7383 305.81,75.7383 305.5,74.5C 313.74,70.9818 322.407,68.6484 331.5,67.5 Z"/></g>
<g><path style="opacity:0.996" fill="#fe7989" d="M 203.5,73.5 C 212.807,77.1508 221.474,81.8175 229.5,87.5C 228.175,161.776 228.175,235.776 229.5,309.5C 220.167,300.833 211.167,291.833 202.5,282.5C 203.499,213.002 203.833,143.335 203.5,73.5 Z"/></g>
<g><path style="opacity:0.997" fill="#fe6787" d="M 305.5,74.5 C 305.81,75.7383 306.31,75.7383 307,74.5C 307.5,147.499 307.667,220.499 307.5,293.5C 299.134,302.867 290.134,311.534 280.5,319.5C 278.503,242.841 277.836,165.841 278.5,88.5C 286.738,82.5464 295.738,77.8797 305.5,74.5 Z"/></g>
<g><path style="opacity:0.998" fill="#fe7389" d="M 229.5,87.5 C 238.965,92.2892 246.965,98.9558 253.5,107.5C 253.5,182.5 253.5,257.5 253.5,332.5C 244.867,325.535 236.867,317.868 229.5,309.5C 228.175,235.776 228.175,161.776 229.5,87.5 Z"/></g>
<g><path style="opacity:0.996" fill="#fe6d88" d="M 278.5,88.5 C 277.836,165.841 278.503,242.841 280.5,319.5C 274.95,325.884 268.95,331.718 262.5,337C 258.45,337.642 255.45,336.142 253.5,332.5C 253.5,257.5 253.5,182.5 253.5,107.5C 254.117,107.611 254.617,107.944 255,108.5C 262.4,101.233 270.233,94.5659 278.5,88.5 Z"/></g>
<g><path style="opacity:0.992" fill="#ff9f8c" d="M 71.5,136.5 C 70.5009,196.998 70.1676,257.664 70.5,318.5C 60.4031,305.322 52.0698,290.989 45.5,275.5C 45.832,231.997 45.4987,188.663 44.5,145.5C 48.8824,135.067 54.5491,125.4 61.5,116.5C 65.3716,122.91 68.7049,129.577 71.5,136.5 Z"/></g>
<g><path style="opacity:0.992" fill="#fd4084" d="M 437.5,322.5 C 436.505,267.905 436.171,213.238 436.5,158.5C 442.643,147.554 448.809,136.554 455,125.5C 471.715,149.984 480.215,177.151 480.5,207C 479.79,236.673 472.29,264.506 458,290.5C 451.392,301.401 444.558,312.068 437.5,322.5 Z"/></g>
<g><path style="opacity:0.991" fill="#ff998c" d="M 71.5,136.5 C 80.5783,152.324 89.9116,167.991 99.5,183.5C 99.1675,253.002 99.5008,322.335 100.5,391.5C 95.9553,401.679 93.2886,412.346 92.5,423.5C 94.8333,423.5 97.1667,423.5 99.5,423.5C 99.7857,429.259 99.4524,434.925 98.5,440.5C 72.3472,441.504 60.8472,428.837 64,402.5C 68.6386,381.392 76.4719,361.558 87.5,343C 81.2127,335.221 75.546,327.055 70.5,318.5C 70.1676,257.664 70.5009,196.998 71.5,136.5 Z"/></g>
<g><path style="opacity:0.964" fill="#ffa48d" d="M 44.5,145.5 C 45.4987,188.663 45.832,231.997 45.5,275.5C 26.0276,232.308 25.6943,188.975 44.5,145.5 Z"/></g>
<g><path style="opacity:0.99" fill="#fd4785" d="M 436.5,158.5 C 436.171,213.238 436.505,267.905 437.5,322.5C 434.757,326.979 431.757,331.312 428.5,335.5C 440.049,353.932 448.882,373.598 455,394.5C 461.95,432.544 446.45,447.044 408.5,438C 399.7,435.352 391.366,431.852 383.5,427.5C 382.542,421.256 382.209,414.923 382.5,408.5C 395.474,415.77 409.308,420.77 424,423.5C 425.5,423.167 427,422.833 428.5,422.5C 425.479,404.77 419.479,388.103 410.5,372.5C 411.499,313.669 411.832,254.669 411.5,195.5C 420.094,183.302 428.427,170.969 436.5,158.5 Z"/></g>
<g><path style="opacity:0.994" fill="#ff928b" d="M 99.5,183.5 C 108.065,194.282 116.398,205.282 124.5,216.5C 124.832,271.669 124.499,326.669 123.5,381.5C 119.202,377.704 115.036,373.704 111,369.5C 107.213,376.738 103.713,384.072 100.5,391.5C 99.5008,322.335 99.1675,253.002 99.5,183.5 Z"/></g>
<g><path style="opacity:0.993" fill="#fd4d85" d="M 411.5,195.5 C 411.832,254.669 411.499,313.669 410.5,372.5C 409.099,369.366 407.432,366.366 405.5,363.5C 398.709,370.792 391.709,377.959 384.5,385C 383.906,385.464 383.239,385.631 382.5,385.5C 382.832,334.997 382.499,284.664 381.5,234.5C 391.531,221.476 401.531,208.476 411.5,195.5 Z"/></g>
<g><path style="opacity:0.99" fill="#fe8d8b" d="M 124.5,216.5 C 133.062,226.611 141.396,236.944 149.5,247.5C 149.168,305.336 149.501,363.002 150.5,420.5C 134.687,430.886 117.353,437.553 98.5,440.5C 99.4524,434.925 99.7857,429.259 99.5,423.5C 116.365,419.4 132.032,412.567 146.5,403C 138.378,396.281 130.711,389.114 123.5,381.5C 124.499,326.669 124.832,271.669 124.5,216.5 Z"/></g>
<g><path style="opacity:0.991" fill="#fd5486" d="M 381.5,234.5 C 382.499,284.664 382.832,334.997 382.5,385.5C 378.161,390.506 373.494,395.173 368.5,399.5C 373.184,402.526 377.851,405.526 382.5,408.5C 382.209,414.923 382.542,421.256 383.5,427.5C 374.188,423.847 365.521,419.18 357.5,413.5C 357.5,363.5 357.5,313.5 357.5,263.5C 365.507,253.828 373.507,244.161 381.5,234.5 Z"/></g>
<g><path style="opacity:0.995" fill="#fe868a" d="M 149.5,247.5 C 157.805,256.808 166.138,266.141 174.5,275.5C 174.5,319.167 174.5,362.833 174.5,406.5C 166.801,411.683 158.801,416.35 150.5,420.5C 149.501,363.002 149.168,305.336 149.5,247.5 Z"/></g>
<g><path style="opacity:0.992" fill="#fe5a86" d="M 357.5,263.5 C 357.5,313.5 357.5,363.5 357.5,413.5C 348.61,408.562 340.277,402.896 332.5,396.5C 332.5,361.167 332.5,325.833 332.5,290.5C 340.494,281.173 348.827,272.173 357.5,263.5 Z"/></g>
<g><path style="opacity:0.991" fill="#fe808a" d="M 174.5,275.5 C 184.139,285.473 193.806,295.473 203.5,305.5C 203.5,332.167 203.5,358.833 203.5,385.5C 194.137,392.855 184.47,399.855 174.5,406.5C 174.5,362.833 174.5,319.167 174.5,275.5 Z"/></g>
<g><path style="opacity:0.989" fill="#fe6187" d="M 332.5,290.5 C 332.5,325.833 332.5,361.167 332.5,396.5C 311.366,382.377 291.366,366.71 272.5,349.5C 292.961,330.276 312.961,310.609 332.5,290.5 Z"/></g>
<g><path style="opacity:0.987" fill="#fe7889" d="M 203.5,305.5 C 218.479,320.145 233.479,334.812 248.5,349.5C 234.017,362.229 219.017,374.229 203.5,385.5C 203.5,358.833 203.5,332.167 203.5,305.5 Z"/></g>
<g><path style="opacity:0.992" fill="#fe6d88" d="M 278.5,375.5 C 278.5,401.167 278.5,426.833 278.5,452.5C 270.642,456.338 262.308,458.005 253.5,457.5C 253.831,426.995 253.498,396.662 252.5,366.5C 254.604,364.901 256.604,363.068 258.5,361C 259.5,360.333 260.5,360.333 261.5,361C 267.238,365.851 272.905,370.685 278.5,375.5 Z"/></g>
<g><path style="opacity:0.993" fill="#fe7389" d="M 252.5,366.5 C 253.498,396.662 253.831,426.995 253.5,457.5C 245.018,457.338 237.018,455.338 229.5,451.5C 228.844,429.735 228.177,408.069 227.5,386.5C 235.809,379.864 244.142,373.197 252.5,366.5 Z"/></g>
<g><path style="opacity:0.986" fill="#fe6588" d="M 278.5,375.5 C 298.505,390.507 318.505,405.507 338.5,420.5C 320.186,434.105 300.186,444.772 278.5,452.5C 278.5,426.833 278.5,401.167 278.5,375.5 Z"/></g>
<g><path style="opacity:0.991" fill="#fe7a89" d="M 227.5,386.5 C 228.177,408.069 228.844,429.735 229.5,451.5C 210.491,444.498 192.825,435.165 176.5,423.5C 193.352,410.913 210.352,398.579 227.5,386.5 Z"/></g>
</svg>
