<svg width="69" height="50" viewBox="0 0 69 50" fill="none" xmlns="http://www.w3.org/2000/svg">
<path d="M7.51002 50H61.49C66.4244 50 69 47.3068 69 41.8911V8.1089C69 2.69321 66.4244 0 61.49 0H7.51002C2.57564 0 0 2.69321 0 8.1089V41.8911C0 47.3068 2.57564 50 7.51002 50ZM5.25973 8.46019C5.25973 6.46955 6.07308 5.67916 7.86248 5.67916H61.1375C62.9269 5.67916 63.7403 6.46955 63.7403 8.46019V38.9637L49.1269 24.1803C47.934 22.9801 46.5242 22.3946 45.0601 22.3946C43.5961 22.3946 42.2405 22.9508 40.9933 24.1511L27.6271 37.0609L21.4727 31.089C20.3611 29.9766 19.1139 29.4204 17.8126 29.4204C16.5654 29.4204 15.4267 29.9766 14.3422 31.0304L5.25973 39.8126V8.46019ZM23.235 24.8829C26.7595 24.8829 29.6876 21.7213 29.6876 17.8279C29.6876 13.993 26.7595 10.8021 23.235 10.8021C19.6291 10.8021 16.6739 13.993 16.6739 17.8279C16.6739 21.7213 19.6291 24.8829 23.235 24.8829ZM10.3357 48.2956L63.7403 47.8988C65.0959 47.8988 61.49 46.7213 61.49 45.2576C61.49 43.7939 59.2186 37.5781 51.4796 44.568L34.5136 47.8988H20.6322C11.9323 39.2434 21.1232 31.99 28.8984 43.3385C19.5809 26.9939 8.98009 48.2956 10.3357 48.2956Z" fill="#E94057"/>
</svg>
